<svg width="31" height="48" viewBox="0 0 31 48" fill="none" xmlns="http://www.w3.org/2000/svg">
<path d="M5.63751 47.7888C4.86048 47.4229 4.52721 46.4956 4.89277 45.718C4.89277 45.7172 4.98292 45.5265 5.14958 45.1557C5.31544 44.7842 5.5553 44.2402 5.84271 43.5594C6.4176 42.1959 7.18636 40.2816 7.95295 38.0937C9.49053 33.7275 10.9962 28.2239 10.9855 24.0277C10.9855 23.5796 10.9696 23.1478 10.9356 22.7352C10.6644 19.226 8.65096 14.82 6.41353 11.0901C4.18506 7.34981 1.77228 4.24434 0.826407 3.07041C0.555751 2.73434 0.412486 2.56515 0.41174 2.56434C-0.143004 1.90843 -0.0608577 0.926229 0.595298 0.371751C1.25139 -0.183474 2.23199 -0.101256 2.78673 0.5554C2.81482 0.589414 5.38721 3.63358 8.07532 7.85826C10.7538 12.0997 13.5972 17.4574 14.0344 22.4805C14.0754 22.9873 14.0948 23.5039 14.0948 24.0277C14.0844 28.9104 12.4693 34.583 10.8874 39.1236C9.29985 43.6536 7.72102 47.0115 7.70658 47.0434C7.44162 47.6072 6.88253 47.9373 6.29896 47.9373C6.07701 47.9373 5.8516 47.8894 5.63751 47.7888Z" fill="white"/>
<path d="M23.2755 47.0431C23.2619 47.0112 21.6821 43.654 20.0947 39.1233C18.5118 34.5827 16.8968 28.9101 16.8861 24.0282C16.8861 23.502 16.9063 22.9856 16.9476 22.4803C17.3852 17.4571 20.229 12.1004 22.9072 7.85883C25.5962 3.63409 28.1678 0.589925 28.1959 0.555164L28.1966 0.55591C28.7508 -0.100746 29.7313 -0.182828 30.3876 0.371447C31.0427 0.926671 31.1255 1.90813 30.5709 2.56485C30.5709 2.5656 30.4267 2.73485 30.1564 3.07085C29.8858 3.40597 29.4953 3.89921 29.0245 4.51961C28.0824 5.76055 26.8147 7.51136 25.5305 9.52994C22.9517 13.553 20.352 18.7197 20.0468 22.7357C20.0131 23.1498 19.9956 23.5817 19.9956 24.0281C19.9884 27.6959 21.1355 32.3766 22.4575 36.4063C23.7754 40.4431 25.25 43.8565 25.833 45.1554C25.9989 45.527 26.0889 45.7176 26.09 45.7184C26.4556 46.496 26.122 47.4226 25.3446 47.7893C25.1305 47.8899 24.9058 47.9378 24.6841 47.9378C24.1003 47.9377 23.5404 47.6068 23.2755 47.0431Z" fill="white"/>
<path d="M14.1412 13.8236L9.96294 6.50511C9.6018 5.87221 9.72593 5.07801 10.2624 4.58606L14.4408 0.75244C15.0356 0.205974 15.9468 0.205974 16.5415 0.75244L20.7199 4.58606C21.2562 5.07726 21.3803 5.87221 21.0194 6.50511L16.8409 13.8236C16.5654 14.3059 16.0465 14.6071 15.4912 14.6071C14.9363 14.6071 14.4168 14.3058 14.1412 13.8236ZM13.2791 6.04032L15.4908 9.91494L17.7034 6.03957L15.4912 4.00992L13.2791 6.04032Z" fill="white"/>
</svg>
