<svg width="37" height="37" viewBox="0 0 37 37" fill="none" xmlns="http://www.w3.org/2000/svg">
<rect x="0.967417" y="0.916941" width="35.1047" height="35.1047" rx="2.58123" stroke="#9F7FF3" stroke-width="1.03249"/>
<g clip-path="url(#clip0_22_3)">
<path d="M26.1996 20.0057C24.0267 18.6314 21.5195 17.8885 18.9381 17.8885H18.8452C16.2638 17.8885 13.7566 18.6128 11.5837 20.0057C11.1753 20.2657 10.9153 20.73 10.9153 21.2313V23.2556C10.9153 24.0541 11.5654 24.7227 12.3639 24.7227H25.4382C26.2367 24.7227 26.8868 24.0726 26.8868 23.2556V21.2313C26.8868 20.73 26.6268 20.2657 26.1997 20.0057H26.1996ZM25.7725 23.2558C25.7725 23.4415 25.6239 23.6087 25.4382 23.6087L12.3639 23.6085C12.1781 23.6085 12.0296 23.4599 12.0296 23.2556L12.0295 21.2314C12.0295 21.1199 12.0852 20.9899 12.1966 20.9342C14.1838 19.6714 16.4866 19.0028 18.8452 19.0028H18.9381C21.2967 19.0028 23.5996 19.6714 25.6053 20.9342C25.6982 20.9899 25.7724 21.1013 25.7724 21.2314L25.7725 23.2558Z" fill="white"/>
<path d="M19.2352 17.1085C20.7951 17.1085 22.0581 15.8457 22.0581 14.3042V11.7413C22.0581 10.1999 20.7951 8.93707 19.2352 8.93707H18.548C17.0066 8.93707 15.7437 10.1999 15.7437 11.7413V14.2856C15.7437 15.8457 17.0066 17.1085 18.5666 17.1085H19.2352ZM16.858 14.3042V11.7413C16.858 10.8128 17.6195 10.0513 18.5666 10.0513H19.2537C20.1823 10.0513 20.9623 10.8128 20.9623 11.7413V14.2856C20.9623 15.2142 20.2008 15.9757 19.2537 15.9757H18.5666C17.6195 15.9943 16.858 15.2329 16.858 14.3043V14.3042Z" fill="white"/>
</g>
<defs>
<clipPath id="clip0_22_3">
<rect width="23.2144" height="23.2144" fill="white" transform="translate(7.10791 8.00854)"/>
</clipPath>
</defs>
</svg>
