<svg width="558" height="320" viewBox="0 0 558 320" fill="none" xmlns="http://www.w3.org/2000/svg">
<g filter="url(#filter0_d_6_373)">
<rect x="18.8298" y="14" width="521.17" height="284" rx="8" fill="white"/>
</g>
<g opacity="0.5">
<path opacity="0.1" d="M223.674 273.185C239.871 273.185 253.001 271.081 253.001 268.484C253.001 265.887 239.871 263.782 223.674 263.782C207.477 263.782 194.346 265.887 194.346 268.484C194.346 271.081 207.477 273.185 223.674 273.185Z" fill="#587EEC"/>
<path opacity="0.1" d="M383.093 273.317C403.304 273.317 419.689 271.213 419.689 268.616C419.689 266.019 403.304 263.915 383.093 263.915C362.881 263.915 346.497 266.019 346.497 268.616C346.497 271.213 362.881 273.317 383.093 273.317Z" fill="#587EEC"/>
<path opacity="0.1" d="M117.266 139.772H147.812V181.328H119.502C119.427 181.755 119.354 182.184 119.276 182.614H147.812V216.128C147.761 216.113 147.716 216.095 147.668 216.077C146.861 215.758 146.06 215.422 145.26 215.061L144.748 214.83C143.945 214.452 143.143 214.051 142.34 213.628C142.06 213.481 141.78 213.328 141.503 213.172C137.048 210.681 133 207.524 129.5 203.811C129.398 203.712 129.302 203.607 129.199 203.511C128.712 202.982 128.233 202.447 127.77 201.9L127.258 201.3C126.71 200.63 126.181 199.942 125.666 199.245C125.591 199.143 125.519 199.04 125.44 198.944C123.347 196.047 121.609 192.911 120.263 189.601C120.221 189.502 120.185 189.394 120.146 189.301C119.733 188.24 119.367 187.168 119.047 186.087C118.909 185.633 118.777 185.185 118.662 184.714C118.62 184.575 118.584 184.44 118.551 184.305C116.841 177.645 116.64 170.726 116.64 163.856C116.64 163.054 116.64 162.249 116.64 161.453C116.64 158.674 116.673 155.877 116.721 153.083C116.721 152.359 116.751 151.638 116.766 150.911C116.808 149.067 116.868 147.222 116.947 145.378C116.965 144.864 116.989 144.353 117.016 143.842C117.016 143.548 117.031 143.254 117.061 142.959C117.133 141.89 117.193 140.829 117.266 139.772Z" fill="#587EEC"/>
<path opacity="0.1" d="M147.812 93.5022H131.057C133.78 89.2471 136.756 85.1582 139.968 81.2573C142.458 78.2051 145.085 75.2311 147.812 72.3651V93.5022Z" fill="#587EEC"/>
<path opacity="0.1" d="M147.812 94.788V138.486H117.362C117.362 138.36 117.383 138.231 117.392 138.105C117.419 137.759 117.446 137.414 117.476 137.071C117.509 136.669 117.546 136.263 117.585 135.869C117.624 135.476 117.666 134.995 117.711 134.56C117.756 134.124 117.798 133.682 117.85 133.247C117.901 132.811 117.946 132.376 118 131.943C118.054 131.51 118.102 131.072 118.16 130.639C118.205 130.279 118.253 129.921 118.301 129.561C118.37 129.053 118.443 128.542 118.521 128.038C118.521 127.963 118.542 127.884 118.554 127.812C119.103 124.118 119.852 120.455 120.796 116.841C121.785 113.05 123.047 109.335 124.573 105.726C126.196 101.95 128.095 98.2994 130.256 94.803L147.812 94.788Z" fill="#587EEC"/>
<path opacity="0.1" d="M155.105 139.769V181.328H220.348V139.769H155.105ZM155.105 182.611V218.3C155.478 218.378 155.848 218.453 156.215 218.516C156.715 218.612 157.212 218.7 157.72 218.775C157.816 218.79 157.916 218.805 158.021 218.814C158.22 218.847 158.424 218.874 158.623 218.901C159.126 218.97 159.625 219.027 160.128 219.072C160.366 219.096 160.607 219.117 160.847 219.135L161.428 219.18C161.744 219.204 162.057 219.222 162.367 219.231C162.56 219.231 162.753 219.249 162.951 219.255C163.102 219.255 163.252 219.255 163.409 219.255C163.565 219.255 163.788 219.255 163.978 219.255C164.236 219.255 164.495 219.255 164.751 219.255H165.097C165.356 219.255 165.615 219.255 165.871 219.231H165.889C166.066 219.231 166.247 219.231 166.427 219.207C166.478 219.21 166.528 219.21 166.578 219.207C166.728 219.207 166.879 219.207 167.023 219.186H167.129L168.137 219.108C168.468 219.078 168.802 219.039 169.139 219.003L169.826 218.922C172.617 218.531 175.378 217.945 178.087 217.167C184.173 215.473 190.127 213.103 196.209 211.366C204.074 209.128 212.763 208.029 220.363 210.766V182.611H155.105ZM220.348 93.5023V38.1752C213.205 38.098 206.081 38.9318 199.15 40.6566C182.629 44.7993 167.806 53.7847 155.105 65.2605V93.4993H158.379V94.7821H155.105V138.486H220.348V94.7851H171.824V93.5023H220.348ZM304.149 74.8136C300.062 74.6694 295.999 73.3776 292.324 71.3829C285.296 67.5676 279.683 61.6765 273.41 56.7047C260.378 46.3494 244.215 40.1009 227.634 38.5507V93.5023H320.772L321.004 93.259L304.149 74.8136ZM312.634 73.3115L321.63 83.1651V70.728C318.617 71.1005 315.978 71.9867 312.646 73.2995L312.634 73.3115ZM321.63 227.162V182.611H302.461C302.41 182.422 302.358 182.229 302.298 182.037C302.355 182.229 302.403 182.422 302.458 182.611H227.646V214.83C228.357 215.356 229.058 215.909 229.753 216.47C230.503 217.071 231.243 217.705 231.987 218.327L232.736 218.946C233.094 219.246 233.455 219.547 233.82 219.829C234.542 220.414 235.271 220.991 236.008 221.559C236.372 221.86 236.745 222.13 237.115 222.413C242.992 226.898 249.192 230.945 255.665 234.522C257.115 235.323 258.579 236.105 260.056 236.869C261.04 237.37 262.03 237.869 263.023 238.353C264.516 239.08 266.021 239.781 267.538 240.455C281.524 246.722 296.312 251.021 311.481 253.232C314.85 253.729 318.232 254.119 321.627 254.404V227.159H321.928L321.63 227.162ZM227.646 94.7851V138.486H321.642V94.7851H227.646ZM227.646 139.769V181.328H321.642V139.769H227.646ZM328.938 70.6739V84.547L340.42 71.9717C336.616 71.3589 332.788 70.9213 328.938 70.6589V70.6739ZM328.938 139.784V181.328H420.36V139.769L328.938 139.784ZM420.026 230.461L420.348 182.611H328.938V254.881C334.826 255.128 340.724 255.058 346.605 254.671H346.708C349.517 254.495 352.313 254.238 355.096 253.902H355.159C370.006 252.177 384.524 248.311 398.259 242.423L420.026 230.461ZM437.988 146.612C437.645 145.804 437.287 145.002 436.923 144.209C436.243 142.707 435.523 141.247 434.783 139.787H427.65V181.328H445.684C445.675 169.564 442.693 157.547 437.997 146.597L437.988 146.612ZM427.65 182.626V223.783C432.73 218.922 437.022 213.361 440.113 207.004C443.83 199.35 445.531 191.062 445.669 182.62L427.65 182.626ZM427.65 127.674V138.489H434.115C432.159 134.766 430.004 131.151 427.659 127.659L427.65 127.674ZM365.648 78.8271C365.173 78.6469 364.697 78.4636 364.218 78.2864C359.171 76.426 354.014 74.8789 348.775 73.654L331.204 92.9015L330.867 93.259L331.093 93.5053H393.63C384.92 87.5212 375.53 82.5891 365.657 78.8121L365.648 78.8271ZM395.463 94.8001H330.22L328.938 95.9717V138.486H340.176H340.194H420.372V117.893C413.119 109.138 404.748 101.369 395.472 94.7851L395.463 94.8001Z" fill="#587EEC"/>
<path opacity="0.1" d="M147.812 116.829V138.486H117.362C117.362 138.36 117.383 138.231 117.392 138.105C117.419 137.759 117.446 137.414 117.476 137.071C117.509 136.669 117.546 136.263 117.585 135.87C117.624 135.476 117.666 134.995 117.711 134.56C117.756 134.124 117.798 133.683 117.85 133.247C117.901 132.811 117.946 132.376 118 131.943C118.054 131.511 118.102 131.072 118.16 130.639C118.205 130.279 118.253 129.921 118.301 129.561C118.37 129.053 118.443 128.542 118.521 128.038C118.521 127.963 118.542 127.885 118.554 127.812C119.103 124.118 119.852 120.456 120.796 116.841L147.812 116.829Z" fill="#587EEC"/>
<path opacity="0.1" d="M117.266 139.772H147.812V181.328H119.502C119.427 181.755 119.354 182.184 119.276 182.614H147.812V216.128C147.761 216.113 147.716 216.095 147.668 216.077C146.861 215.758 146.06 215.422 145.26 215.061L144.748 214.83C143.945 214.452 143.143 214.051 142.34 213.628C142.06 213.481 141.78 213.328 141.503 213.172C137.048 210.681 133 207.524 129.5 203.811C129.398 203.712 129.302 203.607 129.199 203.511C128.712 202.982 128.233 202.447 127.77 201.9L127.258 201.3C126.71 200.63 126.181 199.942 125.666 199.245C125.591 199.143 125.519 199.04 125.44 198.944C123.347 196.047 121.609 192.911 120.263 189.601C120.221 189.502 120.185 189.394 120.146 189.301C119.733 188.24 119.367 187.168 119.047 186.087C118.909 185.633 118.777 185.185 118.662 184.714C118.62 184.575 118.584 184.44 118.551 184.305C116.841 177.645 116.64 170.726 116.64 163.856C116.64 163.054 116.64 162.249 116.64 161.453C116.64 158.674 116.673 155.877 116.721 153.083C116.721 152.359 116.751 151.638 116.766 150.911C116.808 149.067 116.868 147.222 116.947 145.378C116.965 144.864 116.989 144.353 117.016 143.842C117.016 143.548 117.031 143.254 117.061 142.959C117.133 141.89 117.193 140.829 117.266 139.772Z" fill="#587EEC"/>
<path opacity="0.1" d="M178.072 101.043V138.486H155.105V101.043H158.379V88.3651H171.821V101.043H178.072Z" fill="#587EEC"/>
<path opacity="0.1" d="M178.072 139.769H155.108V181.325H178.072V139.769Z" fill="#587EEC"/>
<path opacity="0.1" d="M155.105 182.614H178.072V217.161C175.363 217.938 172.602 218.524 169.81 218.913L169.124 218.997C168.787 219.036 168.453 219.069 168.122 219.102C167.791 219.135 167.448 219.159 167.114 219.18H167.008C166.864 219.18 166.707 219.198 166.566 219.201H166.412C166.232 219.201 166.051 219.219 165.871 219.225C165.615 219.24 165.359 219.243 165.097 219.246C164.986 219.246 164.88 219.246 164.769 219.246C164.51 219.246 164.254 219.246 163.996 219.246H163.427C163.273 219.246 163.126 219.246 162.966 219.246L162.385 219.225C162.084 219.225 161.759 219.192 161.446 219.171L160.868 219.129L160.149 219.063C159.643 219.018 159.141 218.961 158.644 218.892L158.042 218.808L157.741 218.766C157.239 218.687 156.742 218.603 156.236 218.507C155.866 218.444 155.499 218.366 155.126 218.291L155.105 182.614Z" fill="#587EEC"/>
<path opacity="0.1" d="M321.642 96.6206H302.704V138.483H321.642V96.6206Z" fill="#587EEC"/>
<path opacity="0.1" d="M321.645 139.769V181.328H227.646V163.402H277.714V173.977H302.704V139.769H321.645Z" fill="#587EEC"/>
<path opacity="0.1" d="M321.943 227.171H321.642V254.434C318.251 254.147 314.87 253.758 311.499 253.265C296.323 251.047 281.528 246.738 267.538 240.461C263.499 238.647 259.542 236.666 255.668 234.519C249.195 230.94 242.995 226.893 237.115 222.41C235.638 221.28 234.181 220.124 232.742 218.943C231.746 218.123 230.756 217.282 229.753 216.464C229.058 215.903 228.357 215.35 227.646 214.821V182.614H302.455C302.403 182.422 302.352 182.229 302.298 182.04C302.355 182.229 302.41 182.422 302.461 182.614H321.642V227.153C321.744 227.156 321.844 227.165 321.943 227.171Z" fill="#587EEC"/>
<path opacity="0.1" d="M371.033 93.5021H358.692V89.6749H364.224V78.2742C364.704 78.4484 365.182 78.6277 365.657 78.8119V89.6749H371.033V93.5021Z" fill="#587EEC"/>
<path opacity="0.1" d="M400.763 138.486H340.182C340.182 138.486 340.182 138.486 340.203 138.501L340.176 138.486H328.938V96.6235H332.122V127.566H346.674V109.241H358.695V94.788H371.036V109.253H383.057V127.578H400.763V138.486Z" fill="#587EEC"/>
<path opacity="0.1" d="M328.938 139.769V181.328H400.763V139.769H328.938ZM420.261 230.247L420.36 197.352H400.763V182.632H328.938V254.881C334.826 255.128 340.724 255.058 346.605 254.671H346.708C349.517 254.495 352.313 254.238 355.096 253.902H355.159C370.006 252.177 384.524 248.311 398.259 242.423" fill="#587EEC"/>
<path opacity="0.1" d="M428.926 182.614H445.681C445.534 191.052 443.836 199.341 440.122 206.995C437.031 213.355 432.736 218.916 427.662 223.773V197.337H428.926V182.614Z" fill="#587EEC"/>
<path opacity="0.1" d="M445.69 181.328H428.926V146.597H437.997C442.692 157.547 445.675 169.564 445.69 181.328Z" fill="#587EEC"/>
<path opacity="0.1" d="M321.645 108.259H311.499V121.384H321.645V108.259Z" fill="#587EEC"/>
<path opacity="0.1" d="M321.645 135.464H311.499V138.486H321.645V135.464Z" fill="#587EEC"/>
<path opacity="0.1" d="M321.645 139.769H311.499V148.586H321.645V139.769Z" fill="#587EEC"/>
<path opacity="0.1" d="M321.645 162.669H311.499V175.794H321.645V162.669Z" fill="#587EEC"/>
<path opacity="0.1" d="M321.645 189.875H311.499V203H321.645V189.875Z" fill="#587EEC"/>
<path opacity="0.1" d="M321.642 227.153C321.744 227.153 321.844 227.153 321.943 227.171H321.642V230.22H311.499V217.08H321.642V227.153Z" fill="#587EEC"/>
<path opacity="0.1" d="M321.642 244.28V254.418C318.251 254.132 314.87 253.743 311.499 253.25V244.28H321.642Z" fill="#587EEC"/>
<path opacity="0.1" d="M271.129 180.364H227.646V181.328H271.129V180.364Z" fill="#587EEC"/>
<path opacity="0.1" d="M271.129 182.611H227.646V186.306H271.129V182.611Z" fill="#587EEC"/>
<path opacity="0.1" d="M271.129 198.419H227.646V204.361H271.129V198.419Z" fill="#587EEC"/>
<path opacity="0.1" d="M271.126 216.474V222.416H237.115C235.639 221.29 234.18 220.135 232.739 218.949C231.743 218.129 230.756 217.288 229.75 216.474H271.126Z" fill="#587EEC"/>
<path opacity="0.1" d="M271.126 234.525V240.461H267.535C263.5 238.645 259.544 236.663 255.668 234.516L271.126 234.525Z" fill="#587EEC"/>
<path opacity="0.1" d="M355.168 143.797H346.608V152.341H355.168V143.797Z" fill="#587EEC"/>
<path opacity="0.1" d="M169.832 103.99H161.272V112.534H169.832V103.99Z" fill="#587EEC"/>
<path opacity="0.1" d="M169.832 123.835H161.272V132.379H169.832V123.835Z" fill="#587EEC"/>
<path opacity="0.1" d="M169.832 143.68H161.272V152.224H169.832V143.68Z" fill="#587EEC"/>
<path opacity="0.1" d="M169.832 163.523H161.272V172.066H169.832V163.523Z" fill="#587EEC"/>
<path opacity="0.1" d="M169.832 183.368H161.272V191.912H169.832V183.368Z" fill="#587EEC"/>
<path opacity="0.1" d="M169.832 203.213H161.272V211.757H169.832V203.213Z" fill="#587EEC"/>
<path opacity="0.1" d="M387.845 143.797H379.285V152.341H387.845V143.797Z" fill="#587EEC"/>
<path opacity="0.1" d="M355.168 164.871H346.608V173.415H355.168V164.871Z" fill="#587EEC"/>
<path opacity="0.1" d="M387.845 164.871H379.285V173.415H387.845V164.871Z" fill="#587EEC"/>
<path opacity="0.1" d="M355.168 185.942H346.608V194.486H355.168V185.942Z" fill="#587EEC"/>
<path opacity="0.1" d="M387.845 185.942H379.285V194.486H387.845V185.942Z" fill="#587EEC"/>
<path opacity="0.1" d="M355.168 207.016H346.608V215.56H355.168V207.016Z" fill="#587EEC"/>
<path opacity="0.1" d="M387.845 207.016H379.285V215.56H387.845V207.016Z" fill="#587EEC"/>
<path opacity="0.1" d="M355.168 228.09H346.608V236.634H355.168V228.09Z" fill="#587EEC"/>
<path opacity="0.1" d="M387.845 228.09H379.285V236.634H387.845V228.09Z" fill="#587EEC"/>
<path opacity="0.1" d="M346.608 254.671V249.161H355.165V253.887L346.608 254.671Z" fill="#587EEC"/>
<path opacity="0.1" d="M118.518 127.807V132.694H147.812V127.807H118.518ZM121.437 132.388H119.047V128.107H121.455L121.437 132.388ZM124.354 132.388H121.946V128.107H124.354V132.388ZM127.264 132.388H124.856V128.107H127.264V132.388ZM130.181 132.388H127.776V128.107H130.184L130.181 132.388ZM133.094 132.388H130.686V128.107H133.094V132.388ZM136.011 132.388H133.603V128.107H136.011V132.388ZM138.927 132.388H136.519V128.107H138.927V132.388ZM141.841 132.388H139.433V128.107H141.841V132.388ZM144.754 132.388H142.346V128.107H144.754V132.388ZM147.668 132.388H145.26V128.107H147.668V132.388Z" fill="#587EEC"/>
<path opacity="0.1" d="M118.518 142.028V146.916H147.812V142.028H118.518ZM121.437 146.606H119.047V142.338H121.455L121.437 146.606ZM124.354 146.606H121.946V142.338H124.354V146.606ZM127.264 146.606H124.856V142.338H127.264V146.606ZM130.181 146.606H127.776V142.338H130.184L130.181 146.606ZM133.094 146.606H130.686V142.338H133.094V146.606ZM136.011 146.606H133.603V142.338H136.011V146.606ZM138.927 146.606H136.519V142.338H138.927V146.606ZM141.841 146.606H139.433V142.338H141.841V146.606ZM144.754 146.606H142.346V142.338H144.754V146.606ZM147.668 146.606H145.26V142.338H147.668V146.606Z" fill="#587EEC"/>
<path opacity="0.1" d="M118.518 156.255V161.152H147.812V156.255H118.518ZM121.437 160.834H119.047V156.562H121.455L121.437 160.834ZM124.354 160.834H121.946V156.562H124.354V160.834ZM127.264 160.834H124.856V156.562H127.264V160.834ZM130.181 160.834H127.776V156.562H130.184L130.181 160.834ZM133.094 160.834H130.686V156.562H133.094V160.834ZM136.011 160.834H133.603V156.562H136.011V160.834ZM138.927 160.834H136.519V156.562H138.927V160.834ZM141.841 160.834H139.433V156.562H141.841V160.834ZM144.754 160.834H142.346V156.562H144.754V160.834ZM147.668 160.834H145.26V156.562H147.668V160.834Z" fill="#587EEC"/>
<path opacity="0.1" d="M118.518 170.483V175.365H147.812V170.483H118.518ZM121.437 175.061H119.047V170.786H121.455L121.437 175.061ZM124.354 175.061H121.946V170.786H124.354V175.061ZM127.264 175.061H124.856V170.786H127.264V175.061ZM130.181 175.061H127.776V170.786H130.184L130.181 175.061ZM133.094 175.061H130.686V170.786H133.094V175.061ZM136.011 175.061H133.603V170.786H136.011V175.061ZM138.927 175.061H136.519V170.786H138.927V175.061ZM141.841 175.061H139.433V170.786H141.841V175.061ZM144.754 175.061H142.346V170.786H144.754V175.061ZM147.668 175.061H145.26V170.786H147.668V175.061Z" fill="#587EEC"/>
<path opacity="0.1" d="M118.644 184.708C118.762 185.167 118.894 185.627 119.032 186.081V185.014H121.44V189.286H120.152C120.191 189.385 120.23 189.493 120.269 189.586H147.812V184.708H118.644ZM124.363 189.286H121.955V185.014H124.363V189.286ZM127.273 189.286H124.865V185.014H127.273V189.286ZM130.19 189.286H127.776V185.014H130.184L130.19 189.286ZM133.103 189.286H130.695V185.014H133.103V189.286ZM136.02 189.286H133.612V185.014H136.02V189.286ZM138.936 189.286H136.528V185.014H138.936V189.286ZM141.85 189.286H139.442V185.014H141.85V189.286ZM144.763 189.286H142.355V185.014H144.763V189.286ZM147.677 189.286H145.269V185.014H147.677V189.286Z" fill="#587EEC"/>
<path opacity="0.1" d="M125.446 198.935C125.522 199.031 125.594 199.139 125.672 199.236H127.264V201.287C127.436 201.492 127.604 201.696 127.779 201.888V199.224H130.187V203.51H129.212C129.308 203.61 129.401 203.715 129.513 203.811H147.821V198.935H125.446ZM133.094 203.51H130.686V199.242H133.094V203.51ZM136.011 203.51H133.603V199.242H136.011V203.51ZM138.927 203.51H136.519V199.242H138.927V203.51ZM141.841 203.51H139.433V199.242H141.841V203.51ZM144.754 203.51H142.346V199.242H144.754V203.51ZM147.668 203.51H145.26V199.242H147.668V203.51Z" fill="#587EEC"/>
<path opacity="0.1" d="M141.515 213.16C141.789 213.316 142.069 213.46 142.352 213.616V213.466H144.76V214.818L145.272 215.055V213.466H147.679V216.065C147.726 216.088 147.774 216.106 147.824 216.119V213.16H141.515Z" fill="#587EEC"/>
<path opacity="0.1" d="M340.182 138.486H340.2H340.182ZM321.642 227.15H321.943H321.642ZM302.298 182.037C302.355 182.229 302.404 182.421 302.458 182.611C302.41 182.421 302.358 182.229 302.298 182.037ZM340.182 138.477H340.2H340.182ZM158.391 93.4932V94.7759H171.836V93.4932H158.391ZM321.642 227.15H321.943H321.642ZM302.298 182.037C302.355 182.229 302.404 182.421 302.458 182.611C302.41 182.421 302.358 182.229 302.298 182.037ZM340.182 138.477H340.2H340.182ZM321.642 227.141H321.943H321.642ZM302.298 182.037C302.355 182.229 302.404 182.421 302.458 182.611C302.41 182.421 302.358 182.229 302.298 182.037Z" fill="#587EEC"/>
<path d="M252.032 152.23C252.032 152.23 250.846 152.065 250.846 150.34C250.846 148.616 249.997 145.395 249.997 145.395C249.997 145.38 249.263 139.787 248.248 138.898C247.234 138.008 245.931 132.787 245.931 132.787C245.931 132.787 245.708 129.954 245.254 129.344C244.799 128.735 244.185 127.241 243.279 125.112C242.373 122.982 238.596 121.507 238.596 121.507C238.596 121.507 231.767 117.553 229.832 116.264C229.656 116.158 229.491 116.035 229.341 115.895C229.004 115.453 227.535 115.444 227.535 115.444C227.382 114.477 227.234 113.365 227.186 112.359C227.186 112.251 227.186 112.143 227.171 112.035C229.329 110.761 230.954 108.754 231.749 106.381C231.785 106.267 231.815 106.146 231.848 106.032C231.977 105.99 232.096 105.921 232.197 105.83C232.299 105.739 232.379 105.628 232.435 105.504C232.61 105.116 232.613 104.662 232.829 104.302C233.082 103.875 233.564 103.647 233.943 103.326C234.9 102.514 235.147 101.148 235.102 99.9039C235.072 98.8975 234.909 97.8821 234.972 96.8817L234.99 96.6294C235.008 96.4792 235.029 96.329 235.057 96.1848C235.204 95.4397 235.526 94.7368 235.707 93.9978C235.887 93.2587 235.905 92.4266 235.484 91.7897C234.867 90.8554 233.582 90.6692 232.453 90.573C231.174 90.4649 230.03 90.6061 229.212 89.5456C228.828 88.9914 228.397 88.4717 227.923 87.9925C227.755 87.8363 226.117 86.8389 226.117 86.7728C224.519 86.0341 222.708 85.8954 221.016 86.3823C220.167 86.6286 219.367 87.0312 218.506 87.2325C216.649 87.6711 214.512 87.1964 212.935 88.2569C212.056 88.8577 211.529 89.813 211.035 90.7443C210.634 91.5113 210.227 92.2774 209.813 93.0424C209.148 94.3012 208.471 95.5809 208.191 96.9749C208.132 97.2782 208.096 97.5854 208.083 97.8941V97.9091C208.083 98.0203 208.083 98.1314 208.083 98.2426V98.3838C208.083 98.4889 208.083 98.5911 208.101 98.6842C208.119 98.7773 208.116 98.8074 208.125 98.8705C208.134 98.9335 208.149 99.0747 208.167 99.1709C208.185 99.267 208.221 99.4352 208.257 99.5674C208.272 99.6245 208.294 99.6786 208.312 99.7326C208.342 99.8348 208.378 99.9339 208.417 100.033C208.438 100.084 208.459 100.138 208.483 100.189C208.528 100.294 208.582 100.397 208.637 100.49C208.661 100.532 208.679 100.571 208.703 100.61C208.787 100.75 208.879 100.884 208.98 101.012C209.624 101.815 210.572 102.325 211.273 103.076C211.273 103.106 211.273 103.136 211.273 103.163C211.273 103.247 211.273 103.329 211.273 103.413C211.31 105.088 211.757 106.728 212.574 108.192C213.392 109.655 214.555 110.897 215.962 111.809C215.962 111.923 215.978 112.041 215.984 112.155C216.042 113.046 216.031 113.941 215.95 114.831C215.828 114.687 215.674 114.573 215.502 114.496C215.329 114.419 215.14 114.381 214.951 114.387C214.822 114.381 214.692 114.392 214.566 114.42L214.539 114.399V114.426C213.877 114.588 213.061 115.276 212.282 117.232C212.282 117.232 209.91 119.899 208.104 119.788C206.298 119.677 201.726 122.564 201.726 122.564C201.726 122.564 197.266 125.454 196.309 128.398C195.774 130.068 195.132 131.701 194.388 133.289L188.874 144.629L187.857 153.627C187.857 153.627 188.42 157.628 188.309 158.238C188.197 158.848 190.623 164.349 190.623 164.349C190.623 164.349 198.638 178.405 201.913 179.126L202.148 178.961C202.288 179.034 202.436 179.089 202.59 179.126L203.264 178.651C203.305 179.18 203.288 179.712 203.213 180.237C202.762 181.625 203.382 190.683 204.17 192.458C204.959 194.234 204.679 217.513 204.679 217.513L204.567 219.567C204.567 219.567 204.567 219.634 204.595 219.748L204.567 220.234L204.649 220.276C204.733 220.928 204.706 221.59 204.567 222.232C204.285 223.133 204.17 225.681 204.17 225.681C204.17 225.681 201.916 240.065 202.984 242.955C204.053 245.845 204.962 249.011 204.962 249.011C204.962 249.011 206.09 252.616 205.016 253.232C203.941 253.848 200.886 254.881 201.516 256.383C202.087 257.771 204.257 261.49 204.579 262.034L204.552 262.319L204.11 267.105C204.182 267.737 204.353 268.353 204.619 268.931C205.103 269.974 206.045 271.055 207.836 270.938C208.137 270.917 208.486 270.881 208.823 270.836C212.101 270.397 216.137 268.937 216.137 268.937C215.927 268.805 215.735 268.646 215.565 268.466C215.404 268.31 215.276 268.123 215.19 267.917C215.104 267.71 215.06 267.488 215.063 267.264C215.111 266.393 213.476 262.241 213.07 261.22C213.007 261.073 212.974 260.988 212.974 260.988C212.974 260.988 216.7 257.101 216.08 253.655C216.08 253.655 211.956 251.252 213.314 249.933C214.671 248.614 217.097 244.826 217.097 244.826C217.097 244.826 217.209 230.662 217.097 228.547C216.981 227.079 217.051 225.602 217.305 224.152C217.35 223.932 217.404 223.719 217.461 223.509C219.339 223.789 221.234 223.932 223.132 223.939C223.824 223.939 224.528 223.938 225.239 223.896C225.239 224.097 225.248 224.313 225.266 224.545C225.422 228.054 225.714 234.207 225.952 236.493C226.289 239.77 228.152 248.602 228.152 248.602C228.152 248.602 224.598 250.88 228.772 256.491C228.772 256.491 228.772 258.525 228.495 258.819C228.2 259.782 227.961 260.761 227.782 261.752C227.607 262.809 227.535 263.878 227.818 264.434C228.495 265.762 232.558 265.654 232.558 265.654L232.658 265.636C233.425 265.557 234.2 265.63 234.938 265.853C235.677 266.075 236.363 266.441 236.959 266.931C238.503 268.168 244.363 267.625 247.535 267.231C248.778 267.075 249.609 266.931 249.609 266.931C249.649 266.79 249.663 266.644 249.651 266.498C249.618 265.72 249.007 264.014 244.865 262.491C244.865 262.491 240.971 259.877 241.025 257.6H240.944H240.492C240.82 257.582 241.031 257.6 241.031 257.6C241.031 257.6 239.505 252.042 240.128 251.592C240.751 251.141 238.885 244.982 238.885 244.982C238.885 244.982 237.817 234.648 237.759 233.924C237.762 233.303 237.856 232.685 238.039 232.092L237.759 226.426C237.759 226.426 237.705 224.542 237.759 223.929C237.75 223.398 237.707 222.867 237.63 222.34C237.603 222.13 237.576 221.911 237.546 221.694C239.005 221.325 239.953 220.982 239.953 220.982L239.785 201.26C241.025 198.857 241.254 193.585 241.248 189.845C241.248 187.441 241.139 185.663 241.139 185.663L242.834 182.902C242.834 182.902 243.225 179.598 242.605 178.874C242.331 178.546 242.455 178.207 242.68 177.927C242.798 177.834 242.921 177.75 243.051 177.675C243.051 177.675 243.032 177.648 243.011 177.609C243.13 177.51 243.255 177.421 243.388 177.341C243.388 177.341 242.786 176.41 243.324 176.017C243.83 176.359 244.282 176.617 244.625 176.828C244.601 177.047 244.576 177.173 244.576 177.173L244.721 176.873C245.052 177.059 245.254 177.173 245.254 177.173C245.254 177.173 247.908 171.895 247.851 171.117C247.794 170.339 249.657 167.061 249.657 167.061C249.657 167.061 249.883 165.34 250.9 164.619C251.917 163.898 251.689 158.674 251.689 158.674C251.689 158.674 251.972 155.952 252.649 154.84C253.326 153.729 252.032 152.23 252.032 152.23ZM201.239 149.914L201.29 151.172C200.989 150.689 200.772 150.34 200.772 150.34L201.239 149.914Z" fill="url(#paint0_linear_6_373)"/>
<path d="M245.398 174.893L244.748 177.657C244.748 177.657 239.541 175.004 238.602 171.634C237.663 168.263 240.173 166.983 240.173 166.983L245.025 169.035L245.398 174.893Z" fill="white"/>
<path opacity="0.1" d="M245.398 174.893L244.748 177.657C244.748 177.657 239.541 175.004 238.602 171.634C237.663 168.263 240.173 166.983 240.173 166.983L245.025 169.035L245.398 174.893Z" fill="black"/>
<path d="M216.176 268.956C216.176 268.956 211.361 270.722 208.05 270.944C206.292 271.061 205.368 269.986 204.893 268.95C204.633 268.373 204.465 267.76 204.396 267.132L204.826 262.37L205.055 259.835L212.089 258.011L213.085 261.052L213.178 261.283C213.579 262.298 215.183 266.429 215.135 267.291C215.133 267.512 215.176 267.731 215.26 267.935C215.345 268.139 215.47 268.323 215.628 268.478C215.79 268.66 215.974 268.82 216.176 268.956Z" fill="white"/>
<path d="M249.07 266.534C249.082 266.679 249.068 266.824 249.028 266.964C249.028 266.964 238.729 268.679 236.622 266.964C236.028 266.463 235.335 266.091 234.589 265.873C233.843 265.655 233.059 265.594 232.288 265.696C232.288 265.696 228.303 265.804 227.637 264.495C227.361 263.945 227.433 262.878 227.604 261.827C227.779 260.842 228.013 259.868 228.303 258.91L228.462 258.784L229.41 258.024L240.51 257.696H240.595C240.54 259.961 244.363 262.56 244.363 262.56C248.423 264.062 249.022 265.759 249.07 266.534Z" fill="white"/>
<path opacity="0.1" d="M249.07 266.534C249.081 266.679 249.065 266.824 249.025 266.964C249.025 266.964 238.729 268.679 236.622 266.964C236.028 266.463 235.336 266.092 234.59 265.873C233.844 265.655 233.061 265.595 232.291 265.696C232.291 265.696 228.303 265.804 227.64 264.494C227.364 263.942 227.433 262.878 227.604 261.827C229.139 261.98 231.562 262.362 232.513 263.272C233.952 264.657 236.39 266.039 237.886 266.147C239.057 266.222 246.06 266.444 249.07 266.534Z" fill="black"/>
<path opacity="0.1" d="M216.176 268.956C216.176 268.956 211.361 270.722 208.05 270.944C206.292 271.061 205.368 269.986 204.896 268.947C206.121 269.358 207.821 269.791 208.715 269.394C209.774 268.926 213.531 268.622 215.638 268.493C215.798 268.668 215.979 268.823 216.176 268.956Z" fill="black"/>
<path d="M223.321 126.605C219.349 125.064 214.238 119.972 215.514 117.592C215.797 116.992 215.966 116.344 216.011 115.682C216.093 114.783 216.105 113.879 216.047 112.978C215.957 111.503 215.779 110.034 215.514 108.58C215.514 108.58 227.917 108.859 227.195 110.683C226.984 111.218 226.951 112.146 227.008 113.185C227.066 114.225 227.216 115.399 227.373 116.394C227.589 117.758 227.806 118.797 227.806 118.797C227.806 118.797 227.048 119.857 226.602 119.915C226.157 119.972 229.022 128.801 223.321 126.605Z" fill="#CF6F80"/>
<path opacity="0.1" d="M213.169 261.283L213.076 261.385C209.368 256.909 204.884 262.488 204.884 262.488L204.817 262.37L205.046 259.835L212.08 258.011L213.076 261.052L213.169 261.283Z" fill="black"/>
<path opacity="0.1" d="M240.598 258.012C240.598 258.012 237.889 257.954 236.444 259.228C234.999 260.502 228.017 259.505 228.318 259.228C228.407 259.091 228.461 258.934 228.474 258.772L229.422 258.012L240.522 257.684C240.564 257.885 240.598 258.012 240.598 258.012Z" fill="black"/>
<path d="M217.783 222.86C217.582 223.358 217.429 223.874 217.326 224.401C217.075 225.845 217.005 227.314 217.118 228.775C217.23 230.878 217.118 244.971 217.118 244.971C217.118 244.971 214.738 248.729 213.41 250.054C212.083 251.378 216.119 253.758 216.119 253.758C216.721 257.182 213.073 261.052 213.073 261.052C209.365 256.576 204.881 262.157 204.881 262.157C204.881 262.157 202.443 257.951 201.835 256.449C201.227 254.947 204.215 253.908 205.266 253.298C206.316 252.688 205.215 249.092 205.215 249.092C205.215 249.092 204.327 245.941 203.273 243.066C202.22 240.191 204.435 225.879 204.435 225.879C204.435 225.879 204.549 223.338 204.823 222.452C204.962 221.812 204.989 221.154 204.905 220.505C204.887 220.286 204.865 220.102 204.85 219.979C204.835 219.856 204.823 219.799 204.823 219.799L204.865 219.727L206.37 216.927C206.37 216.927 218.506 221.097 217.783 222.86Z" fill="#587EEC"/>
<path d="M240.598 257.681C240.598 257.681 237.889 257.624 236.444 258.883C234.999 260.142 228.017 259.159 228.318 258.883C228.619 258.607 228.595 256.561 228.595 256.561C224.498 250.979 227.993 248.714 227.993 248.714C227.993 248.714 226.163 239.927 225.832 236.667C225.6 234.39 225.314 228.271 225.16 224.777C225.094 223.275 225.055 222.241 225.055 222.241L228.402 221.569L228.832 221.481L236.905 219.865C236.905 219.865 237.127 221.367 237.278 222.596C237.353 223.121 237.395 223.649 237.404 224.179C237.35 224.78 237.404 226.661 237.404 226.661L237.678 232.299C237.499 232.891 237.407 233.505 237.404 234.123C237.458 234.841 238.509 245.121 238.509 245.121C238.509 245.121 240.336 251.255 239.713 251.697C239.09 252.139 240.598 257.681 240.598 257.681Z" fill="#587EEC"/>
<path opacity="0.1" d="M227.195 110.683C226.984 111.218 226.951 112.146 227.008 113.185C225.347 114.184 223.437 114.694 221.498 114.658C219.559 114.622 217.67 114.041 216.047 112.981C215.957 111.505 215.78 110.035 215.514 108.58C215.514 108.58 227.917 108.853 227.195 110.683Z" fill="black"/>
<path d="M231.99 104.044C231.992 105.126 231.821 106.202 231.484 107.231C230.73 109.536 229.184 111.501 227.118 112.779C225.053 114.056 222.602 114.564 220.198 114.212C217.794 113.86 215.593 112.671 213.982 110.855C212.371 109.04 211.456 106.714 211.397 104.29C211.397 104.206 211.397 104.128 211.397 104.044C211.373 102.679 211.622 101.324 212.129 100.056C212.636 98.7886 213.391 97.6345 214.35 96.6613C215.308 95.688 216.452 94.915 217.713 94.3873C218.974 93.8596 220.327 93.5879 221.695 93.5879C223.062 93.5879 224.416 93.8596 225.677 94.3873C226.938 94.915 228.081 95.688 229.039 96.6613C229.998 97.6345 230.753 98.7886 231.26 100.056C231.767 101.324 232.016 102.679 231.993 104.044H231.99Z" fill="#CF6F80"/>
<path opacity="0.1" d="M223.321 126.605C219.349 125.064 214.238 119.972 215.514 117.592C215.797 116.992 215.966 116.344 216.011 115.682L221.449 120.143L224.814 122.898L227.373 116.397C227.589 117.761 227.806 118.8 227.806 118.8C227.806 118.8 227.048 119.861 226.602 119.918C226.157 119.975 229.022 128.801 223.321 126.605Z" fill="black"/>
<path d="M237.386 146.321L232.844 222.476L226.921 222.863L211.583 178.705L214.099 126.28L214.629 115.204L221.449 120.795L224.817 123.55L227.451 116.859L232.348 121.119L237.386 146.321Z" fill="#587EEC"/>
<path opacity="0.1" d="M217.783 222.86C217.582 223.358 217.429 223.874 217.326 224.401C213.016 223.737 208.83 222.432 204.908 220.529L204.826 220.487L204.853 220.003L204.868 219.751L206.373 216.951C206.373 216.951 218.506 221.097 217.783 222.86Z" fill="black"/>
<path opacity="0.1" d="M228.471 224.413C227.369 224.6 226.258 224.727 225.142 224.792C225.076 223.29 225.037 222.256 225.037 222.256L228.384 221.583L228.471 224.413Z" fill="black"/>
<path opacity="0.1" d="M237.26 222.611C235.12 223.167 231.815 223.792 228.856 223.401L228.814 221.496L236.887 219.88C236.887 219.88 237.109 221.367 237.26 222.611Z" fill="black"/>
<path opacity="0.1" d="M228.802 223.749C216.462 225.852 205.16 219.823 205.16 219.823L205.269 217.78C205.269 217.78 205.549 194.621 204.772 192.846C203.996 191.07 203.391 182.067 203.83 180.685C204.27 179.303 202.226 158.581 202.226 158.581L201.895 150.169L189.777 145.269L195.195 133.998C195.927 132.418 196.556 130.792 197.079 129.131C198.021 126.205 202.394 123.33 202.394 123.33C202.394 123.33 206.879 120.458 208.652 120.566C210.425 120.675 212.748 118.025 212.748 118.025C214.464 113.66 216.017 115.637 216.017 115.637C216.017 115.844 216.017 115.637 215.932 116.283C215.33 121.074 225.666 136.215 225.814 136.482L226.798 160.413L227.794 190.698L228.802 223.749Z" fill="black"/>
<path d="M228.471 223.749C216.131 225.852 204.826 219.823 204.826 219.823L204.938 217.78C204.938 217.78 205.218 194.621 204.438 192.846C203.658 191.07 203.057 182.067 203.499 180.685C203.941 179.303 201.895 158.581 201.895 158.581L201.561 150.169L189.437 145.251L194.855 133.98C195.585 132.399 196.214 130.774 196.739 129.113C197.678 126.187 202.054 123.312 202.054 123.312C202.054 123.312 206.539 120.44 208.309 120.549C210.078 120.657 212.405 118.007 212.405 118.007C214.123 113.642 216.017 115.619 216.017 115.619C216.017 115.826 215.836 115.919 215.932 116.265C217.257 120.912 225.335 136.197 225.482 136.464L226.479 160.395L227.475 190.68L228.471 223.749Z" fill="white"/>
<path opacity="0.1" d="M225.145 137.146C223.818 136.594 216.787 128.582 216.787 128.582V126.758C216.531 126.157 215.011 126.524 213.777 126.944L214.307 115.868L214.909 116.367C216.227 121.011 224.992 136.879 225.145 137.146Z" fill="black"/>
<path d="M225.479 136.482C224.149 135.93 217.118 127.918 217.118 127.918V126.094C216.862 125.493 215.343 125.86 214.109 126.28L214.641 115.204L215.243 115.703C216.564 120.347 225.332 136.218 225.479 136.482Z" fill="white"/>
<path opacity="0.1" d="M205.16 176.44C205.326 176.44 213.741 175.557 213.741 175.557C213.741 175.557 218.837 185.558 218.503 187.991C218.169 190.424 217.564 192.578 215.514 192.197C213.464 191.815 204.483 192.497 204.483 192.497L205.16 176.44Z" fill="black"/>
<path d="M204.826 175.777C204.992 175.777 213.407 174.893 213.407 174.893C213.407 174.893 218.5 184.897 218.169 187.327C217.838 189.758 217.227 191.915 215.18 191.533C213.133 191.152 204.149 191.834 204.149 191.834L204.826 175.777Z" fill="white"/>
<path d="M211.168 171.081C211.168 171.081 218.891 175.224 219.057 176.488C219.222 177.753 215.126 175.936 214.241 175.716C213.659 175.576 213.066 175.484 212.468 175.44L206.566 175.599L211.168 171.081Z" fill="#CF6F80"/>
<path opacity="0.1" d="M222.99 137.663C223.439 137.663 223.803 137.3 223.803 136.852C223.803 136.404 223.439 136.041 222.99 136.041C222.542 136.041 222.178 136.404 222.178 136.852C222.178 137.3 222.542 137.663 222.99 137.663Z" fill="black"/>
<path d="M222.99 137.333C223.439 137.333 223.803 136.97 223.803 136.522C223.803 136.074 223.439 135.71 222.99 135.71C222.542 135.71 222.178 136.074 222.178 136.522C222.178 136.97 222.542 137.333 222.99 137.333Z" fill="#3F3D56"/>
<path opacity="0.1" d="M224.486 172.775C224.935 172.775 225.299 172.412 225.299 171.964C225.299 171.516 224.935 171.153 224.486 171.153C224.037 171.153 223.674 171.516 223.674 171.964C223.674 172.412 224.037 172.775 224.486 172.775Z" fill="black"/>
<path d="M224.486 172.442C224.935 172.442 225.299 172.079 225.299 171.631C225.299 171.183 224.935 170.82 224.486 170.82C224.037 170.82 223.674 171.183 223.674 171.631C223.674 172.079 224.037 172.442 224.486 172.442Z" fill="#3F3D56"/>
<path opacity="0.1" d="M223.8 155.219C224.249 155.219 224.613 154.856 224.613 154.408C224.613 153.96 224.249 153.597 223.8 153.597C223.351 153.597 222.987 153.96 222.987 154.408C222.987 154.856 223.351 155.219 223.8 155.219Z" fill="black"/>
<path d="M223.8 154.889C224.249 154.889 224.613 154.526 224.613 154.078C224.613 153.63 224.249 153.267 223.8 153.267C223.351 153.267 222.987 153.63 222.987 154.078C222.987 154.526 223.351 154.889 223.8 154.889Z" fill="#3F3D56"/>
<path d="M242.533 175.272C242.533 175.272 243.087 176.101 242.533 176.488C241.979 176.876 242.587 177.813 242.587 177.813C242.587 177.813 241.206 178.621 241.814 179.348C242.422 180.075 242.036 183.359 242.036 183.359L240.375 186.105C240.375 186.105 240.474 187.874 240.48 190.265C240.48 193.996 240.261 199.242 239.045 201.633L239.213 221.253C239.213 221.253 233.395 223.374 228.525 222.728L227.803 191.245C227.803 191.245 228.856 173.391 229.245 169.966C229.472 168.188 229.564 166.396 229.522 164.604C229.522 164.604 229.356 159.245 228.799 156.757C228.799 156.757 228.197 145.981 228.137 142.998C228.11 141.571 228.185 137.408 228.27 133.448C228.363 129.119 228.468 125.037 228.468 125.037L227.37 116.361C227.37 116.361 228.468 116.249 228.799 116.691C228.948 116.829 229.109 116.953 229.281 117.061C231.177 118.34 237.877 122.276 237.877 122.276C237.877 122.276 241.585 123.748 242.473 125.857C243.361 127.966 243.978 129.462 244.408 130.062C244.838 130.663 245.073 133.487 245.073 133.487C245.073 133.487 246.349 138.684 247.346 139.565C248.342 140.445 249.07 146.044 249.07 146.044L240.267 152.954C240.267 152.954 239.493 164.448 239.327 164.892C239.162 165.337 242.533 175.272 242.533 175.272Z" fill="white"/>
<path d="M242.867 175.272C242.867 175.272 243.418 176.101 242.867 176.489C242.316 176.876 242.918 177.813 242.918 177.813C242.918 177.813 241.546 178.63 242.148 179.357C242.75 180.084 242.37 183.368 242.37 183.368L240.709 186.114C240.709 186.114 240.808 187.883 240.817 190.275C240.817 194.006 240.598 199.251 239.382 201.642L239.547 221.262C239.547 221.262 233.72 223.383 228.856 222.737L228.137 191.254C228.137 191.254 229.19 173.4 229.579 169.976C229.806 168.198 229.898 166.405 229.853 164.613C229.853 164.613 229.687 159.254 229.133 156.766C229.133 156.766 228.531 145.991 228.468 143.007C228.441 141.581 228.519 137.417 228.601 133.457C228.694 129.128 228.799 125.046 228.799 125.046L227.349 116.253C227.349 116.253 228.799 116.253 229.133 116.7C229.28 116.84 229.442 116.964 229.615 117.07C231.511 118.35 238.214 122.285 238.214 122.285C238.214 122.285 241.919 123.757 242.807 125.866C243.695 127.975 244.312 129.471 244.745 130.072C245.178 130.673 245.407 133.496 245.407 133.496C245.407 133.496 246.683 138.694 247.68 139.574C248.676 140.454 249.395 146.042 249.395 146.042L240.592 152.951C240.592 152.951 239.818 164.445 239.649 164.89C239.481 165.334 242.867 175.272 242.867 175.272Z" fill="white"/>
<path opacity="0.1" d="M232.324 127.596L233.118 129.909L228.935 134.115C229.028 129.789 229.133 125.703 229.133 125.703L227.683 116.91C227.683 116.91 229.133 116.91 229.467 117.358C229.614 117.498 229.775 117.62 229.949 117.725L233.507 127.969L232.324 127.596Z" fill="black"/>
<path d="M231.99 126.932L232.787 129.245L228.604 133.451C228.697 129.122 228.802 125.04 228.802 125.04L227.349 116.247C227.349 116.247 228.802 116.247 229.133 116.694C229.281 116.833 229.442 116.957 229.615 117.064L233.175 127.305L231.99 126.932Z" fill="white"/>
<path opacity="0.1" d="M231.99 104.044C231.992 105.126 231.821 106.202 231.484 107.231C231.427 107.24 231.369 107.237 231.313 107.223C231.257 107.21 231.205 107.185 231.159 107.15C231.081 104.446 229.747 101.908 228.107 99.7479C227.646 99.0957 227.088 98.5182 226.452 98.0355C225.808 97.5531 225.008 97.3271 224.206 97.4016C223.303 97.5248 222.506 98.1376 221.594 98.2157C220.39 98.3149 219.312 97.4827 218.118 97.4407C217.632 97.4453 217.153 97.5532 216.712 97.7573C216.271 97.9615 215.879 98.257 215.562 98.6243C214.935 99.3655 214.468 100.229 214.193 101.16C213.72 102.571 213.462 104.046 213.428 105.534C213.413 106.375 213.332 107.429 212.549 107.736C212.608 107.117 212.538 106.493 212.343 105.903C212.147 105.313 211.831 104.77 211.415 104.308L211.397 104.29C211.397 104.206 211.397 104.128 211.397 104.044C211.373 102.679 211.622 101.324 212.129 100.056C212.636 98.7886 213.391 97.6345 214.35 96.6613C215.308 95.688 216.452 94.915 217.713 94.3873C218.974 93.8596 220.327 93.5879 221.695 93.5879C223.062 93.5879 224.416 93.8596 225.677 94.3873C226.938 94.915 228.081 95.688 229.039 96.6613C229.998 97.6345 230.753 98.7886 231.26 100.056C231.767 101.324 232.016 102.679 231.993 104.044H231.99Z" fill="black"/>
<path d="M225.958 87.7224C224.394 86.9881 222.615 86.8492 220.956 87.3319C220.122 87.5782 219.336 87.9777 218.491 88.179C216.685 88.6146 214.578 88.143 213.028 89.1974C212.167 89.7982 211.649 90.7476 211.168 91.6698L209.964 93.959C209.308 95.2117 208.646 96.4854 208.372 97.8643C208.098 99.2432 208.263 100.787 209.139 101.896C209.777 102.704 210.719 103.212 211.412 103.972C211.826 104.434 212.141 104.977 212.336 105.566C212.53 106.155 212.601 106.779 212.543 107.396C213.329 107.096 213.404 106.039 213.422 105.197C213.456 103.709 213.713 102.235 214.187 100.823C214.461 99.8923 214.928 99.0287 215.556 98.2879C215.874 97.9209 216.266 97.6256 216.706 97.4215C217.147 97.2174 217.626 97.1093 218.111 97.1043C219.315 97.1464 220.396 97.9755 221.588 97.8764C222.491 97.8013 223.291 97.1854 224.2 97.0652C225.002 96.9895 225.803 97.2156 226.446 97.6991C227.082 98.181 227.639 98.7587 228.098 99.4115C229.741 101.571 231.075 104.104 231.153 106.814C231.493 107.063 231.984 106.739 232.152 106.354C232.321 105.969 232.327 105.519 232.54 105.152C232.787 104.729 233.26 104.503 233.63 104.185C234.569 103.377 234.804 102.016 234.768 100.781C234.732 99.5467 234.491 98.2939 234.725 97.0803C234.867 96.3352 235.186 95.6383 235.361 94.9023C235.535 94.1663 235.556 93.3401 235.144 92.7062C234.542 91.775 233.275 91.5917 232.17 91.5046C230.915 91.3964 229.792 91.5346 228.992 90.4802C228.616 89.9299 228.193 89.4133 227.728 88.9361C227.568 88.7798 225.958 87.7885 225.958 87.7224Z" fill="#512E4E"/>
<path opacity="0.1" d="M193.245 151.073L190.1 145.269L189.103 154.225C189.103 154.225 189.657 158.202 189.546 158.812C189.434 159.422 191.815 164.889 191.815 164.889C191.815 164.889 199.68 178.871 202.891 179.592L213.741 171.853L210.864 168.206C210.864 168.206 209.868 167.818 209.618 168.206C209.618 168.206 204.276 159.031 203.722 158.367C203.168 157.703 203.276 156.379 203.276 156.379C203.276 156.379 202.446 155.495 202.723 154.666C202.999 153.837 201.118 150.962 201.118 150.962L202.834 149.361L193.245 151.073Z" fill="black"/>
<path d="M190.265 144.609L189.434 145.27L188.438 154.225C188.438 154.225 188.992 158.202 188.88 158.812C188.769 159.422 191.153 164.89 191.153 164.89C191.153 164.89 199.014 178.871 202.226 179.592L213.079 171.853L210.199 168.206C210.199 168.206 209.202 167.819 208.953 168.206C208.953 168.206 203.61 159.031 203.057 158.368C202.503 157.704 202.614 156.379 202.614 156.379C202.614 156.379 201.783 155.496 202.06 154.666C202.337 153.837 200.453 150.962 200.453 150.962L202.169 149.361L190.265 144.609Z" fill="white"/>
<path opacity="0.1" d="M241.814 179.691C242.415 180.421 242.036 183.698 242.036 183.698L240.375 186.444C240.375 186.444 240.474 188.217 240.48 190.605L237.687 191.476C237.435 191.555 237.167 191.572 236.907 191.526C236.646 191.481 236.4 191.374 236.19 191.214C235.979 191.055 235.81 190.847 235.696 190.609C235.582 190.371 235.527 190.109 235.535 189.845L236.017 174.34L242.533 176.828C241.979 177.212 242.587 178.156 242.587 178.156C242.587 178.156 241.206 178.961 241.814 179.691Z" fill="black"/>
<path d="M242.148 179.357C242.75 180.087 242.37 183.368 242.37 183.368L240.709 186.114C240.709 186.114 240.808 187.883 240.817 190.274L237.973 191.161C237.726 191.237 237.464 191.254 237.209 191.209C236.954 191.164 236.713 191.059 236.507 190.903C236.301 190.747 236.136 190.543 236.024 190.31C235.912 190.077 235.858 189.821 235.866 189.562L236.351 174.01L242.87 176.497C242.313 176.882 242.921 177.822 242.921 177.822C242.921 177.822 241.546 178.63 242.148 179.357Z" fill="white"/>
<path d="M244.306 171.967C244.306 171.967 243.863 174.788 242.756 174.953C241.648 175.119 241.151 179.517 240.047 179.36C238.942 179.204 239.674 175.272 239.713 174.509C239.752 173.746 238.509 170.585 239.439 169.867C240.369 169.149 243.312 169.867 243.312 169.867L244.306 171.967Z" fill="#CF6F80"/>
<path opacity="0.1" d="M246.662 150.244L248.751 146.038C248.751 146.038 249.582 149.244 249.582 150.956C249.582 152.669 250.744 152.837 250.744 152.837C250.744 152.837 252.017 154.339 251.346 155.432C250.674 156.526 250.403 159.248 250.403 159.248C250.403 159.248 250.623 164.442 249.627 165.16C248.631 165.878 248.423 167.593 248.423 167.593C248.423 167.593 246.593 170.853 246.65 171.628C246.707 172.403 244.104 177.651 244.104 177.651C244.104 177.651 245.377 171.129 237.958 168.311C237.958 168.311 237.901 166.097 238.455 165.49C239.008 164.883 239.872 164.607 239.331 161.54C238.789 158.473 239.174 154.808 239.174 154.072C239.174 153.335 240.835 148.745 240.835 148.745L246.662 150.244Z" fill="black"/>
<path d="M247.565 145.438L249.389 146.038C249.389 146.038 250.223 149.244 250.223 150.956C250.223 152.669 251.385 152.837 251.385 152.837C251.385 152.837 252.658 154.339 251.987 155.432C251.315 156.526 251.048 159.248 251.048 159.248C251.048 159.248 251.267 164.442 250.271 165.16C249.275 165.878 249.052 167.593 249.052 167.593C249.052 167.593 247.225 170.853 247.282 171.628C247.34 172.403 244.733 177.651 244.733 177.651C244.733 177.651 246.009 171.129 238.587 168.311C238.587 168.311 238.533 166.097 239.087 165.49C239.641 164.883 240.504 164.607 239.963 161.54C239.421 158.473 239.806 154.808 239.806 154.071C239.806 153.335 241.467 148.745 241.467 148.745L247.565 145.438Z" fill="white"/>
<path opacity="0.1" d="M207.279 254.449C207.279 254.449 210.187 252.625 212.095 253.95C214.003 255.275 207.279 254.449 207.279 254.449Z" fill="black"/>
<path opacity="0.1" d="M229.871 248.81C229.871 248.81 232.444 248.479 234.605 250.802C236.766 253.124 229.871 248.81 229.871 248.81Z" fill="black"/>
<g opacity="0.1">
<path opacity="0.1" d="M233.636 103.527C233.266 103.846 232.79 104.074 232.543 104.497C232.333 104.861 232.327 105.309 232.158 105.699C231.99 106.09 231.499 106.408 231.159 106.162C231.081 103.458 229.744 100.919 228.104 98.7565C227.645 98.1037 227.088 97.5261 226.452 97.0442C225.807 96.5608 225.006 96.3347 224.203 96.4103C223.3 96.5335 222.506 97.1463 221.594 97.2214C220.39 97.3235 219.309 96.4914 218.114 96.4493C217.629 96.4542 217.15 96.5625 216.71 96.7672C216.27 96.9718 215.878 97.2681 215.562 97.636C214.934 98.3757 214.467 99.2383 214.193 100.168C213.72 101.58 213.462 103.054 213.428 104.542C213.41 105.381 213.332 106.426 212.555 106.738C212.573 106.96 212.573 107.183 212.555 107.405C213.338 107.105 213.416 106.048 213.434 105.206C213.468 103.718 213.726 102.244 214.199 100.832C214.473 99.9013 214.94 99.0377 215.568 98.2969C215.885 97.93 216.276 97.6346 216.717 97.4305C217.157 97.2264 217.635 97.1183 218.121 97.1133C219.324 97.1553 220.408 97.9844 221.6 97.8853C222.503 97.8102 223.303 97.1944 224.209 97.0742C225.012 96.9986 225.813 97.2247 226.458 97.7081C227.094 98.19 227.651 98.7677 228.11 99.4204C229.75 101.58 231.087 104.113 231.165 106.823C231.505 107.072 231.996 106.748 232.164 106.363C232.333 105.978 232.339 105.528 232.549 105.161C232.796 104.738 233.272 104.512 233.642 104.194C234.581 103.386 234.816 102.025 234.78 100.79C234.78 100.751 234.78 100.712 234.78 100.676C234.722 101.746 234.437 102.836 233.636 103.527Z" fill="black"/>
<path opacity="0.1" d="M211.418 103.314C210.725 102.554 209.78 102.046 209.145 101.241C208.611 100.528 208.305 99.6702 208.269 98.7805C208.175 99.8923 208.486 101.001 209.145 101.902C209.78 102.71 210.725 103.218 211.418 103.978C212.082 104.721 212.481 105.663 212.552 106.657C212.598 106.052 212.522 105.445 212.327 104.87C212.132 104.295 211.823 103.766 211.418 103.314Z" fill="black"/>
<path opacity="0.1" d="M235.367 94.2442C235.189 94.9802 234.873 95.6802 234.728 96.4222C234.643 96.9181 234.612 97.4217 234.635 97.9243C234.645 97.638 234.676 97.3528 234.728 97.0711C234.873 96.3261 235.189 95.6291 235.367 94.8931C235.47 94.4872 235.504 94.0666 235.466 93.6494C235.447 93.8498 235.414 94.0486 235.367 94.2442Z" fill="black"/>
</g>
<path opacity="0.1" d="M153.049 266.663C169.246 266.663 182.376 264.559 182.376 261.962C182.376 259.365 169.246 257.26 153.049 257.26C136.852 257.26 123.722 259.365 123.722 261.962C123.722 264.559 136.852 266.663 153.049 266.663Z" fill="#587EEC"/>
<path d="M153.994 171.898H152.107V214.308H153.994V171.898Z" fill="#535461"/>
<path d="M165.853 214.178L165.735 216.089L165.567 218.793L165.497 219.916L165.332 222.62L165.26 223.744L165.091 226.447L163.189 257.11C163.106 258.43 162.523 259.668 161.558 260.573C160.593 261.479 159.318 261.983 157.994 261.983H148.104C146.78 261.983 145.506 261.478 144.541 260.573C143.577 259.668 142.994 258.429 142.912 257.11L141.019 226.426L140.85 223.723L140.781 222.599L140.613 219.895L140.543 218.772L140.375 216.068L140.254 214.157C140.234 213.79 140.288 213.422 140.415 213.076C140.542 212.73 140.738 212.413 140.991 212.146C141.245 211.878 141.551 211.665 141.89 211.52C142.229 211.375 142.594 211.3 142.963 211.3H163.192C163.56 211.304 163.923 211.382 164.259 211.531C164.595 211.679 164.897 211.895 165.146 212.165C165.396 212.434 165.587 212.752 165.708 213.099C165.83 213.445 165.879 213.812 165.853 214.178Z" fill="#3F3D56"/>
<path d="M165.735 216.089L165.567 218.784H140.531L140.363 216.089H165.735Z" fill="#9D9CB5"/>
<path d="M165.498 219.907L165.332 222.605H140.769L140.601 219.907H165.498Z" fill="#9D9CB5"/>
<path d="M165.26 223.731L165.094 226.426H141.007L140.838 223.731H165.26Z" fill="#9D9CB5"/>
<path d="M137.482 187.793C148.471 195.73 153.058 208.143 153.058 208.143C153.058 208.143 139.815 207.689 128.823 199.752C117.831 191.815 113.254 179.405 113.254 179.405C113.254 179.405 126.491 179.856 137.482 187.793Z" fill="#587EEC"/>
<path d="M113.245 179.405C113.245 179.405 126.993 187.021 131.403 193.327C135.812 199.632 153.058 208.143 153.058 208.143" stroke="#535461" stroke-width="2" stroke-miterlimit="10"/>
<path d="M144.576 171.805C150.557 176.122 153.058 182.878 153.058 182.878C153.058 182.878 145.85 182.632 139.866 178.315C133.883 173.998 131.388 167.239 131.388 167.239C131.388 167.239 138.593 167.485 144.576 171.805Z" fill="#587EEC"/>
<path d="M131.388 167.239C131.388 167.239 138.87 171.384 141.269 174.815C143.667 178.246 153.058 182.878 153.058 182.878" stroke="#535461" stroke-width="2" stroke-miterlimit="10"/>
<path d="M161.741 182.536C154.87 190.073 153.416 199.924 153.416 199.924C153.416 199.924 163.105 197.55 169.97 190.01C176.835 182.47 178.295 172.622 178.295 172.622C178.295 172.622 168.613 174.998 161.741 182.536Z" fill="#587EEC"/>
<path d="M178.301 172.625C178.301 172.625 169.35 180.352 167.075 185.675C164.799 190.998 153.416 199.924 153.416 199.924" stroke="#535461" stroke-width="2" stroke-miterlimit="10"/>
<path d="M413.979 179.883C413.979 179.883 409.01 155.207 410.912 152.137C410.912 152.137 410.981 149.283 410.867 145.645C410.867 145.507 410.867 145.369 410.867 145.227C411.202 145.45 411.551 145.651 411.911 145.828C413.664 146.727 415.676 146.986 417.6 146.561L416.095 144.888C415.734 144.488 415.358 144.056 415.279 143.527C415.201 142.998 415.418 142.527 415.605 142.055C417.034 138.45 417.109 133.917 414.355 131.165C412.029 128.852 411.463 125.866 408.938 123.754C407.093 122.207 406.079 119.939 405.121 117.746C404.312 115.892 403.496 114.023 403.033 112.059C402.671 110.524 402.527 108.934 402.03 107.435C401.534 105.936 400.604 104.479 399.15 103.809C398.632 103.572 398.057 103.437 397.585 103.121C396.965 102.704 396.592 102.025 396.143 101.43C393.865 98.426 386.235 100.195 382.623 101.415C381.641 101.722 380.732 102.225 379.951 102.893L379.984 102.839C380.011 102.794 380.044 102.749 380.074 102.704C379.679 103.023 379.337 103.403 379.063 103.83C378.536 104.663 378.316 105.633 377.877 106.534C377.347 107.601 374.401 110.578 375.668 111.776C375.756 111.857 375.858 111.922 375.969 111.969C376.444 112.166 376.968 112.218 377.474 112.119L377.419 112.248C376.987 113.306 376.765 114.437 376.766 115.58C376.766 120.515 380.844 124.517 385.88 124.517C386.826 124.518 387.768 124.373 388.67 124.087C388.691 124.201 388.709 124.316 388.73 124.43C388.73 124.475 388.745 124.52 388.751 124.565L388.592 124.787C388.584 124.774 388.575 124.76 388.565 124.748L383.839 131.339C383.117 131.847 378.957 134.851 378.723 137.104C378.476 139.571 378.229 142.458 378.229 142.458L378.196 143.076C377.989 143.249 377.748 143.374 377.488 143.444C377.228 143.514 376.956 143.527 376.691 143.482C375.216 143.242 375.216 148.889 375.216 148.889C375.216 148.889 374.235 149.791 373.561 149.01C372.887 148.229 371.105 150.875 371.105 150.875L359.939 151.356L359.683 151.371L359.081 149.511C359.016 149.315 358.876 149.152 358.692 149.058C358.508 148.965 358.294 148.947 358.097 149.01C358.05 149.025 358.005 149.044 357.961 149.067L357.919 149.091L357.841 149.145L357.802 149.181C357.78 149.2 357.76 149.221 357.741 149.244L357.705 149.286L357.687 149.304C357.618 149.4 357.572 149.511 357.553 149.628C357.534 149.744 357.543 149.864 357.579 149.977L358.097 151.572C355.942 152.005 353.738 153.224 355.535 156.583L346.428 154.904L349.374 157.373L364.586 160.506C364.384 160.867 364.516 161.39 365.145 162.126C367.854 165.301 372.79 166.163 374.777 166.385C375.301 167.557 375.957 168.665 376.73 169.69L376.559 172.853C376.559 172.853 371.529 196.965 370.608 198.187C371.073 197.661 371.499 197.102 371.881 196.514C370.422 201.468 368.381 208.248 367.845 209.263C366.984 210.886 366.187 217.45 367.168 217.87C367.469 217.999 368.33 217.936 369.558 217.843V218.387L369.504 238.992C369.504 238.992 369.75 251.631 369.073 252.835C368.396 254.04 368.215 256.567 368.215 256.567C368.215 256.567 365.507 261.55 363.361 263.554C363.346 263.57 363.33 263.584 363.313 263.596L363.246 263.128C363.246 263.128 360.667 266.378 354.96 266.195C354.96 266.195 351.526 268.424 356.619 268.544C361.711 268.664 368.215 268.364 368.215 268.364C368.215 268.364 372.757 261.454 376.562 262.356V267.592H377.726V262.271C378.267 261.916 378.729 261.456 379.085 260.917C379.442 260.379 379.685 259.773 379.8 259.138C379.9 258.483 379.827 257.814 379.588 257.196C379.35 256.578 378.954 256.033 378.44 255.614C378.209 255.406 378.023 255.152 377.896 254.869C377.768 254.585 377.7 254.279 377.696 253.968L377.654 254.004C377.654 253.899 377.627 253.791 377.615 253.68C377.281 250.976 376.863 245.397 378.34 241.27C380.366 235.61 380.98 227.727 379.505 223.034C379.029 221.534 378.638 220.009 378.334 218.465C378.298 218.27 378.265 218.084 378.235 217.909C379.243 218.046 380.241 218.246 381.224 218.51C384.64 219.45 392.113 219.625 398.494 219.574C398.509 219.748 398.527 219.931 398.548 220.114C398.662 221.388 398.9 222.648 399.258 223.876C400.059 226.279 400.426 236.874 400.426 236.874C400.426 236.874 401.459 245.586 400.896 249.131C400.595 251.102 400.294 253.082 400.122 255.07V255.11C400.122 255.11 398.431 259.916 397.194 262.527C397.164 262.593 397.13 262.659 397.1 262.722C396.771 262.752 396.446 262.824 396.134 262.935C396.134 262.935 394.476 266.24 392.823 266.787C391.171 267.333 391.719 269.133 395.46 268.472C399.201 267.811 404.851 267.27 404.851 267.27L405.094 263.9L406.244 262.464L405.943 265.825L407.168 265.585L407.006 261.496L408.887 259.147C408.887 259.147 411.159 257.128 407.782 253.157V253.244C407.746 253.187 407.713 253.127 407.674 253.07V253.052C407.114 252.187 406.668 250.573 407.484 247.71C408.959 242.537 409.817 237.842 409.817 237.842C409.817 237.842 413.109 225.263 409.152 219.312H409.326C408.92 218.475 408.634 217.585 408.474 216.669C408.454 216.561 408.436 216.449 408.42 216.335C411.349 216.167 414.223 215.638 416.568 214.497C416.559 214.485 415.147 184.636 413.979 179.883ZM376.799 159.064V159.124L376.197 159.155L376.799 159.064ZM374.735 159.35C374.636 159.372 374.543 159.416 374.464 159.479C374.205 159.844 374.042 160.269 373.991 160.714L373.052 160.503C373.052 160.503 372.393 160.362 371.445 160.203L370.996 159.752C372.23 159.65 373.513 159.5 374.735 159.35Z" fill="url(#paint1_linear_6_373)"/>
<path d="M405.805 261.538L405.447 265.795L406.647 265.555L406.467 260.938L405.805 261.538Z" fill="#1D2366"/>
<path d="M378.406 241.326C376.959 245.442 377.368 250.997 377.693 253.694C377.814 254.692 377.925 255.299 377.925 255.299C377.925 255.299 375.761 260.219 375.58 260.406C375.4 260.592 369.212 264.362 369.212 264.362L364.887 266.883C364.887 266.883 360.498 264.963 362.602 264.302C363.032 264.13 363.419 263.866 363.737 263.53C365.844 261.532 368.489 256.566 368.489 256.566C368.489 256.566 368.67 254.046 369.332 252.847C369.994 251.649 369.753 239.052 369.753 239.052L369.805 218.519V215.842L378.036 215.902C378.088 216.811 378.207 217.715 378.391 218.606C378.687 220.145 379.07 221.665 379.538 223.16C380.989 227.844 380.387 235.688 378.406 241.326Z" fill="#FFB0B1"/>
<path opacity="0.1" d="M377.925 255.299C377.925 255.299 375.761 260.22 375.58 260.406C375.4 260.592 369.212 264.362 369.212 264.362L364.887 266.883C364.887 266.883 360.498 264.963 362.602 264.302C363.032 264.13 363.419 263.867 363.737 263.53L363.923 264.843L365.365 264.783L377.705 253.701C377.814 254.692 377.925 255.299 377.925 255.299Z" fill="black"/>
<path d="M377.775 253.98L365.365 265.137L363.923 265.197L363.622 263.095C363.622 263.095 361.1 266.333 355.496 266.153C355.496 266.153 352.131 268.373 357.118 268.493C362.106 268.613 368.474 268.313 368.474 268.313C368.474 268.313 372.923 261.403 376.646 262.304V267.523H377.79V262.256C378.321 261.899 378.775 261.438 379.124 260.901C379.472 260.364 379.709 259.762 379.818 259.132C379.917 258.483 379.847 257.819 379.615 257.204C379.382 256.59 378.995 256.045 378.491 255.623C378.266 255.412 378.086 255.158 377.963 254.875C377.84 254.593 377.775 254.288 377.775 253.98Z" fill="#1D2366"/>
<path d="M406.948 247.743C406.148 250.597 406.584 252.205 407.132 253.067V253.085C407.834 254.149 408.323 255.34 408.571 256.591L408.619 256.861L402.972 265.077L399.908 266.279C399.908 266.279 394.981 264.6 395.881 264.119C396.107 264.002 396.459 263.377 396.863 262.515C398.066 259.916 399.728 255.122 399.728 255.122V255.083C399.902 253.103 400.179 251.129 400.486 249.164C401.037 245.629 400.026 236.95 400.026 236.95C400.026 236.95 399.665 226.396 398.882 223.996C398.529 222.775 398.294 221.524 398.181 220.259C398.018 218.757 397.982 217.519 397.982 217.519C397.982 217.519 401.227 213.013 407.174 217.879C407.65 218.267 408.068 218.721 408.417 219.225C412.525 225.059 409.218 237.911 409.218 237.911C409.218 237.911 408.39 242.585 406.948 247.743Z" fill="#FFB0B1"/>
<path opacity="0.1" d="M408.628 256.861L402.981 265.077L399.918 266.279C399.918 266.279 394.991 264.6 395.89 264.119C396.116 264.002 396.468 263.377 396.872 262.515C398.957 262.497 400.038 264.479 400.038 264.479L402.68 264.059C402.68 264.059 406.166 257.221 406.948 256.804C407.731 256.386 407.069 253.683 407.069 253.683V252.995C407.09 253.019 407.108 253.046 407.132 253.07V253.088C407.835 254.152 408.323 255.343 408.571 256.594L408.628 256.861Z" fill="black"/>
<path d="M400.218 264.657C400.218 264.657 398.714 261.899 395.83 262.917C395.83 262.917 394.208 266.222 392.586 266.757C390.963 267.291 391.505 269.094 395.171 268.436C398.837 267.778 404.363 267.234 404.363 267.234L404.604 263.873L408.33 259.135C408.33 259.135 410.551 257.125 407.246 253.169V253.857C407.246 253.857 407.908 256.561 407.126 256.978C406.343 257.396 402.87 264.236 402.87 264.236L400.218 264.657Z" fill="#1D2366"/>
<path opacity="0.1" d="M378.045 215.897C378.097 216.805 378.216 217.709 378.4 218.6C375.011 218.105 371.866 218.351 369.805 218.513V215.837L378.045 215.897Z" fill="black"/>
<path opacity="0.1" d="M408.751 219.973C408.751 219.973 403.936 220.208 398.193 220.256C398.03 218.754 397.994 217.516 397.994 217.516C397.994 217.516 401.239 213.01 407.186 217.876C407.662 218.265 408.08 218.718 408.429 219.222C408.522 219.478 408.63 219.729 408.751 219.973Z" fill="black"/>
<path d="M408.751 219.432C408.751 219.432 387.659 220.451 381.23 218.651C374.801 216.852 368.429 218.411 367.469 217.993C366.509 217.576 367.288 211.036 368.131 209.417C368.974 207.797 373.597 191.422 373.597 191.422L378.045 168.272L382.732 166.983L383.063 166.89L391.228 164.643L397.212 162.994C397.212 162.994 409.109 209.356 408.089 212.775C407.719 214.084 407.659 215.461 407.915 216.798C408.07 217.71 408.352 218.597 408.751 219.432Z" fill="#1D2366"/>
<path d="M362.539 152.44C362.539 152.44 358.325 156.946 361.516 159.458C364.706 161.969 366.804 159.698 366.804 159.698L362.539 152.44Z" fill="#C7DAF5"/>
<path opacity="0.1" d="M362.539 152.44C362.539 152.44 358.325 156.946 361.516 159.458C364.706 161.969 366.804 159.698 366.804 159.698L362.539 152.44Z" fill="black"/>
<path d="M396.583 122.814C396.583 122.814 396.089 123.282 395.346 123.973C394.286 124.962 392.718 126.407 391.328 127.617C389.401 129.29 387.812 130.519 388.381 129.471C388.95 128.422 388.842 126.596 388.559 124.886C388.538 124.772 388.519 124.658 388.498 124.547C388.264 123.292 387.954 122.052 387.568 120.834C387.568 120.834 390.68 116.82 392.402 115.237C393.043 114.636 393.492 114.39 393.519 114.808C393.549 115.369 393.97 116.61 394.494 117.926C394.509 117.968 394.524 118.007 394.542 118.049C394.891 118.95 395.285 119.876 395.632 120.675C396.161 121.9 396.583 122.814 396.583 122.814Z" fill="#FFB0B1"/>
<path opacity="0.1" d="M394.542 118.049C394.25 119.619 393.54 121.082 392.487 122.285C391.435 123.487 390.078 124.386 388.559 124.886C388.319 123.515 387.988 122.161 387.568 120.834C387.568 120.834 393.428 113.278 393.519 114.807C393.54 115.387 393.997 116.673 394.542 118.049Z" fill="black"/>
<path opacity="0.1" d="M387.975 126.905L388.733 125.839C388.733 125.839 389.236 128.897 391.084 127.548C392.932 126.199 393.022 137.699 393.022 137.699L391.039 167.299L376.706 166.443L377.112 152.14L378.735 144.93L382.747 134.449L385.133 130.985L387.975 126.905Z" fill="black"/>
<path d="M393.022 137.882L391.216 164.646L391.027 167.482L383.036 167.004L382.735 166.986L376.715 166.626L377.121 152.32L378.744 145.11L382.756 134.629L385.142 131.165L387.984 127.07L388.742 126.007C388.742 126.007 389.245 129.065 391.093 127.716L391.132 127.689C392.938 126.548 393.022 137.882 393.022 137.882Z" fill="#1D2366"/>
<path d="M378.945 142.605C378.945 142.605 378.226 144.107 376.781 143.864C375.337 143.62 375.34 149.271 375.34 149.271C375.34 149.271 374.379 150.172 373.717 149.391C373.055 148.61 371.309 151.251 371.309 151.251L360.372 151.731C360.372 151.731 365.239 153.951 364.285 160.669C364.285 160.669 380.808 159.647 381.35 158.088C381.892 156.529 378.945 142.605 378.945 142.605Z" fill="white"/>
<path opacity="0.03" d="M378.945 142.605C378.945 142.605 378.226 144.107 376.781 143.864C375.337 143.62 375.34 149.271 375.34 149.271C375.34 149.271 374.379 150.172 373.717 149.391C373.055 148.61 371.309 151.251 371.309 151.251L360.372 151.731C360.372 151.731 365.239 153.951 364.285 160.669C364.285 160.669 380.808 159.647 381.35 158.088C381.892 156.529 378.945 142.605 378.945 142.605Z" fill="black"/>
<path d="M347.159 155.261L350.042 157.719L373.778 162.696L370.834 159.698L347.159 155.261Z" fill="white"/>
<path d="M388.02 127.851C387.625 128.452 386.497 131.529 385.555 134.214C384.769 136.452 384.113 138.42 384.113 138.42C384.113 138.42 382.581 148.376 381.799 150.175C381.016 151.975 381.44 158.992 381.44 158.992L378.524 176.323C378.524 176.323 377.203 185.26 375.162 190.599C373.148 195.853 370.906 198.316 370.837 198.395C371.74 197.175 376.661 173.16 376.661 173.16L378.286 142.872C378.286 142.872 378.524 139.994 378.765 137.534C379.005 135.073 383.881 131.715 383.881 131.715L388.583 125.043C389.055 125.673 388.739 126.773 388.02 127.851Z" fill="white"/>
<path d="M375.761 166.776C375.761 166.776 368.838 166.476 365.486 162.456C362.133 158.437 373.236 160.852 373.236 160.852L376.122 161.513L375.761 166.776Z" fill="#FFB0B1"/>
<path opacity="0.1" d="M408.089 212.778C407.719 214.087 407.659 215.465 407.914 216.801C400.363 217.335 392.285 215.299 392.285 215.299C390.78 216.681 386.816 218.717 386.816 218.717L384.655 191.981C383.273 188.376 382.732 169.489 382.732 169.489C382.732 169.489 382.855 168.5 383.033 167.019C383.033 166.983 383.033 166.944 383.048 166.908C383.586 162.771 384.655 155.006 385.179 153.957C385.901 152.515 382.957 148.679 382.957 148.679L384.297 137.278L384.459 135.902C387.282 134.644 389.446 130.624 389.446 130.624L391.108 127.719C392.914 126.563 393.007 137.897 393.007 137.897L391.201 164.661L397.185 163.012C397.185 163.012 409.109 209.36 408.089 212.778Z" fill="black"/>
<path d="M415.839 214.626C407.607 218.706 392.646 214.926 392.646 214.926C391.141 216.308 387.177 218.345 387.177 218.345L385.013 191.608C383.635 188.003 383.093 169.116 383.093 169.116C383.093 169.116 384.832 155.024 385.555 153.585C385.765 153.164 385.663 152.54 385.413 151.867C384.185 148.664 383.733 145.216 384.095 141.806L384.673 136.906L384.832 135.533C387.659 134.271 389.823 130.252 389.823 130.252L391.328 127.62L394.097 122.772L395.409 120.476L395.632 120.678L397.332 122.216C397.332 122.216 398.054 122.817 399.138 123.718C401.495 125.701 405.567 129.191 407.668 131.327C409.516 133.208 410.1 140.523 410.268 146.03C410.379 149.656 410.313 152.497 410.313 152.497C408.45 155.559 413.323 180.136 413.323 180.136C414.458 184.885 415.839 214.626 415.839 214.626Z" fill="white"/>
<path opacity="0.03" d="M400.038 130.192C400.038 130.192 394.389 140.926 395.045 145.005C395.701 149.085 397.567 153.702 396.667 154.781C396.358 155.189 395.958 155.521 395.499 155.75C395.04 155.978 394.534 156.098 394.021 156.099C393.118 156.16 390.711 157.839 390.711 158.019C390.711 158.199 388.486 158.199 386.497 159.04C384.507 159.882 381.57 160.359 381.57 160.359C381.57 160.359 375.851 160.179 375.319 160.72C374.786 161.261 374.238 164.496 375.379 167.077C376.519 169.657 377.787 171.583 378.744 171.934C379.701 172.286 385.775 170.255 390.702 169.774C395.629 169.294 400.977 165.397 400.977 165.397C400.977 165.397 406.867 163.294 407.899 159.758C408.932 156.223 406.638 136.789 406.638 136.789C406.638 136.789 404.905 127.731 400.038 130.192Z" fill="black"/>
<path opacity="0.03" d="M399.316 129.291C399.316 129.291 393.666 140.027 394.328 144.104C394.99 148.181 396.85 152.801 395.948 153.882C395.639 154.291 395.24 154.623 394.782 154.852C394.323 155.081 393.818 155.201 393.305 155.201C392.402 155.261 389.994 156.941 389.994 157.121C389.994 157.301 387.77 157.301 385.78 158.139C383.791 158.977 380.853 159.458 380.853 159.458C380.853 159.458 375.135 159.278 374.605 159.819C374.075 160.359 373.522 163.598 374.665 166.175C375.809 168.753 377.073 170.682 378.03 171.033C378.987 171.384 385.061 169.354 389.988 168.876C394.915 168.398 400.264 164.496 400.264 164.496C400.264 164.496 406.151 162.393 407.171 158.86C408.191 155.327 405.91 135.888 405.91 135.888C405.91 135.888 404.182 126.833 399.316 129.291Z" fill="black"/>
<path d="M399.86 129.651C399.86 129.651 394.211 140.388 394.873 144.464C395.535 148.541 397.395 153.161 396.495 154.24C396.187 154.65 395.788 154.983 395.329 155.212C394.869 155.442 394.363 155.561 393.85 155.562C392.947 155.622 390.539 157.301 390.539 157.478C390.539 157.656 388.318 157.659 386.325 158.5C384.333 159.341 381.398 159.818 381.398 159.818C381.398 159.818 375.68 159.638 375.147 160.179C374.614 160.72 374.066 163.958 375.207 166.536C376.348 169.113 377.615 171.042 378.572 171.393C379.529 171.745 385.603 169.714 390.53 169.233C395.457 168.753 400.805 164.856 400.805 164.856C400.805 164.856 406.695 162.754 407.728 159.218C408.76 155.682 406.482 136.248 406.482 136.248C406.482 136.248 404.724 127.206 399.86 129.651Z" fill="white"/>
<path opacity="0.1" d="M399.737 158.449C399.737 158.449 395.222 157.547 396.793 159.049C398.364 160.551 398.355 161.867 400.279 161.807C402.202 161.747 399.737 158.449 399.737 158.449Z" fill="black"/>
<path opacity="0.1" d="M407.367 190.767C407.367 190.767 405.326 192.146 409.23 195.324C413.133 198.503 407.367 190.767 407.367 190.767Z" fill="black"/>
<path opacity="0.1" d="M403.472 202.102C403.472 202.282 402.75 208.711 405.452 210.318C408.155 211.925 403.472 202.102 403.472 202.102Z" fill="black"/>
<path d="M360.559 151.716C358.379 151.791 353.672 152.455 356.113 157.001C358.271 161.023 361.898 158.334 363.938 156.295C363.441 154.393 362.231 152.754 360.559 151.716Z" fill="#FFB0B1"/>
<path d="M363.966 156.259L364.056 156.166L363.966 156.259Z" fill="#FFB0B1"/>
<path opacity="0.1" d="M399.138 123.901C396.826 125.478 394.888 126.809 394.509 127.085C393.474 127.851 391.499 132.349 390.226 134.644C389.212 136.491 385.916 136.966 384.673 137.083L384.833 135.71C387.659 134.448 389.823 130.429 389.823 130.429L395.409 120.653L397.332 122.399C397.332 122.399 398.054 123 399.138 123.901Z" fill="black"/>
<path d="M399.138 123.721C396.826 125.298 394.888 126.629 394.509 126.908C393.474 127.671 391.499 132.168 390.226 134.464C389.212 136.311 385.916 136.786 384.673 136.903L384.833 135.53C387.659 134.268 389.823 130.249 389.823 130.249L395.409 120.473L397.332 122.213C397.332 122.213 398.054 122.807 399.138 123.721Z" fill="#DCE7FF"/>
<path d="M394.689 116.066C394.691 117.87 394.143 119.631 393.118 121.116C391.908 122.873 390.108 124.138 388.043 124.682C385.979 125.227 383.787 125.015 381.866 124.084C379.944 123.154 378.421 121.567 377.572 119.611C376.722 117.656 376.604 115.461 377.237 113.425C377.87 111.39 379.214 109.648 381.023 108.517C382.833 107.385 384.989 106.939 387.101 107.258C389.212 107.578 391.139 108.642 392.531 110.258C393.923 111.874 394.689 113.935 394.689 116.066Z" fill="#FFB0B1"/>
<path opacity="0.1" d="M410.268 146.032C409.046 145.282 408.05 144.215 407.388 142.944C406.885 141.953 406.551 140.808 405.693 140.105C404.92 139.474 403.887 139.321 402.924 139.039C399.758 138.105 397.103 135.221 397.004 131.928C396.956 130.378 397.44 128.831 397.221 127.296C397.096 126.427 396.75 125.605 396.215 124.907C395.95 124.574 395.659 124.262 395.346 123.973C394.924 123.577 394.482 123.192 394.097 122.771C393.854 122.511 393.642 122.224 393.464 121.915C393.321 121.663 393.205 121.396 393.118 121.119C392.516 119.281 393.064 117.1 392.402 115.24L392.366 115.138C392.116 114.477 391.607 113.816 390.9 113.765C390.193 113.714 389.588 114.3 388.914 114.561C387.502 115.108 385.979 114.177 384.802 113.227C383.625 112.278 382.298 111.194 380.802 111.404C379.812 111.545 379.03 112.218 378.118 112.566C377.912 112.646 377.699 112.707 377.483 112.75C378.254 110.829 379.672 109.236 381.493 108.245C383.313 107.254 385.423 106.927 387.459 107.319C389.495 107.712 391.33 108.8 392.65 110.397C393.969 111.994 394.691 113.999 394.689 116.069C394.69 116.694 394.625 117.318 394.494 117.929C394.509 117.971 394.524 118.01 394.542 118.052C394.891 118.953 395.285 119.878 395.632 120.678L397.332 122.216C397.332 122.216 398.054 122.817 399.138 123.718C401.495 125.7 405.567 129.191 407.668 131.327C409.516 133.214 410.094 140.526 410.268 146.032Z" fill="black"/>
<path d="M378.012 107.078C378.443 106.204 378.656 105.224 379.171 104.395C379.927 103.194 381.245 102.424 382.599 101.959C386.136 100.742 393.609 98.9757 395.842 101.959C396.282 102.56 396.646 103.227 397.254 103.641C397.717 103.957 398.277 104.092 398.786 104.329C400.209 104.996 401.118 106.45 401.603 107.934C402.088 109.418 402.232 111.01 402.587 112.539C403.042 114.501 403.839 116.361 404.634 118.208C405.57 120.389 406.563 122.651 408.369 124.192C410.834 126.295 411.379 129.272 413.666 131.58C416.375 134.319 416.288 138.841 414.891 142.431C414.708 142.902 414.5 143.395 414.572 143.897C414.644 144.398 415.018 144.855 415.37 145.254L416.85 146.922C413.347 147.766 409.383 145.939 407.752 142.734C407.249 141.743 406.915 140.601 406.054 139.895C405.284 139.264 404.249 139.114 403.288 138.832C400.122 137.894 397.468 135.007 397.368 131.715C397.32 130.168 397.805 128.621 397.585 127.088C397.463 126.214 397.115 125.386 396.577 124.685C395.749 123.607 394.5 122.883 393.826 121.681C392.685 119.671 393.552 117.061 392.73 114.904C392.477 114.243 391.972 113.582 391.264 113.531C390.557 113.48 389.952 114.066 389.275 114.327C387.866 114.874 386.343 113.945 385.167 112.993C383.99 112.041 382.662 110.959 381.164 111.173C380.173 111.311 379.394 111.984 378.482 112.335C377.808 112.593 376.441 112.825 375.851 112.257C374.605 111.112 377.492 108.147 378.012 107.078Z" fill="#591D4B"/>
<path opacity="0.1" d="M408.589 141.743C408.083 140.751 407.752 139.61 406.891 138.907C406.121 138.276 405.085 138.123 404.122 137.84C400.959 136.906 398.304 134.019 398.202 130.727C398.154 129.179 398.638 127.629 398.422 126.097C398.296 125.228 397.948 124.406 397.413 123.709C396.583 122.63 395.334 121.906 394.662 120.705C393.522 118.698 394.389 116.087 393.564 113.927C393.314 113.269 392.805 112.609 392.101 112.555C391.397 112.5 390.786 113.092 390.112 113.354C388.703 113.9 387.177 112.969 386.003 112.02C384.829 111.07 383.496 109.986 382 110.196C381.01 110.337 380.227 111.01 379.319 111.359C378.644 111.617 377.275 111.852 376.685 111.284C375.445 110.082 378.331 107.123 378.849 106.06C379.279 105.182 379.493 104.206 380.011 103.377C380.038 103.332 380.068 103.287 380.098 103.242C379.711 103.562 379.377 103.941 379.108 104.365C378.593 105.194 378.379 106.168 377.949 107.048C377.428 108.111 374.542 111.079 375.785 112.272C376.387 112.843 377.741 112.609 378.416 112.35C379.319 111.999 380.107 111.326 381.097 111.188C382.602 110.974 383.927 112.059 385.1 113.008C386.274 113.957 387.809 114.889 389.212 114.342C389.886 114.081 390.476 113.492 391.198 113.546C391.92 113.6 392.402 114.258 392.664 114.919C393.486 117.076 392.619 119.686 393.759 121.696C394.434 122.877 395.683 123.616 396.51 124.7C397.049 125.401 397.396 126.229 397.519 127.104C397.738 128.636 397.254 130.183 397.302 131.73C397.401 135.034 400.056 137.909 403.222 138.847C404.176 139.129 405.218 139.279 405.988 139.91C406.852 140.616 407.192 141.758 407.686 142.749C409.317 145.954 413.281 147.781 416.784 146.937L416.086 146.15C413.049 146.195 409.976 144.47 408.589 141.743Z" fill="black"/>
<path opacity="0.1" d="M387.839 128.032C387.445 128.633 386.316 131.709 385.374 134.395C384.492 134.052 383.692 131.868 383.692 131.868L388.393 125.193C388.875 125.854 388.559 126.95 387.839 128.032Z" fill="black"/>
<path d="M388.02 127.851C387.626 128.452 386.497 131.528 385.555 134.214C384.673 133.875 383.872 131.688 383.872 131.688L388.574 125.016C389.055 125.673 388.739 126.773 388.02 127.851Z" fill="#DCE7FF"/>
<path d="M360.685 158.542L358.078 150.337C358.048 150.241 358.036 150.14 358.044 150.04C358.053 149.939 358.081 149.841 358.128 149.752C358.174 149.662 358.238 149.582 358.315 149.518C358.392 149.453 358.482 149.403 358.578 149.373C358.772 149.313 358.982 149.331 359.162 149.425C359.343 149.518 359.479 149.679 359.541 149.872L362.148 158.067L361.889 159.782L360.685 158.542Z" fill="#BE8B87"/>
<path opacity="0.1" d="M358.325 149.616C358.52 149.555 358.731 149.573 358.912 149.667C359.093 149.76 359.229 149.921 359.292 150.115L361.898 158.31L361.702 159.596L361.892 159.795L362.151 158.079L359.529 149.884C359.467 149.691 359.331 149.53 359.151 149.437C358.97 149.343 358.76 149.325 358.566 149.385C358.403 149.438 358.262 149.544 358.166 149.686C358.217 149.658 358.27 149.635 358.325 149.616Z" fill="white"/>
<path d="M360.685 158.542L362.148 158.079L361.934 159.485L361.889 159.795L361.461 159.35L360.685 158.542Z" fill="#EFC8C4"/>
<path d="M361.461 159.35C361.487 159.318 361.519 159.291 361.555 159.272C361.576 159.258 361.601 159.251 361.626 159.251C361.651 159.251 361.675 159.258 361.696 159.272C361.717 159.296 361.734 159.324 361.747 159.353C361.767 159.386 361.794 159.414 361.827 159.436C361.859 159.457 361.896 159.471 361.934 159.476L361.889 159.776L361.461 159.35Z" fill="#727A9C"/>
<path d="M358.063 153.251C358.063 153.251 363.291 153.221 362.06 155.441C360.829 157.662 358.906 157.929 358.906 157.929L358.063 153.251Z" fill="#FFB0B1"/>
<path d="M325.549 53.6193H325.323C316.342 53.6193 308.399 58.3628 303.83 65.3624C299.261 58.3628 291.319 53.6193 282.337 53.6193H282.112C275.371 53.6834 268.929 56.3999 264.184 61.1785C259.439 65.9571 256.776 72.4116 256.772 79.1394C256.772 87.4939 260.438 99.3482 267.586 109.103C281.206 127.689 303.83 143.951 303.83 143.951C303.83 143.951 326.455 127.692 340.071 109.103C347.222 99.3482 350.885 87.4939 350.885 79.1394C350.881 72.4121 348.218 65.958 343.474 61.1795C338.73 56.401 332.288 53.6842 325.549 53.6193ZM322.319 110.533C321.296 110.529 320.299 110.216 319.457 109.636C318.615 109.056 317.969 108.235 317.603 107.282H312.233C311.88 107.28 311.536 107.168 311.249 106.961C310.963 106.754 310.748 106.463 310.635 106.128L308.986 101.169L303.767 119.371C303.665 119.721 303.453 120.029 303.161 120.249C302.869 120.468 302.513 120.587 302.148 120.587H302.042C301.661 120.569 301.298 120.421 301.013 120.167C300.728 119.913 300.539 119.57 300.477 119.193L295.099 86.9051L291.168 106.011C291.078 106.374 290.869 106.697 290.573 106.927C290.278 107.157 289.914 107.282 289.54 107.282H281.976C281.749 107.292 281.523 107.255 281.311 107.175C281.098 107.095 280.905 106.973 280.741 106.817C280.577 106.66 280.447 106.472 280.357 106.263C280.268 106.055 280.223 105.831 280.223 105.604C280.223 105.378 280.268 105.154 280.357 104.945C280.447 104.737 280.577 104.549 280.741 104.392C280.905 104.235 281.098 104.113 281.311 104.033C281.523 103.953 281.749 103.917 281.976 103.926H288.215L293.784 78.2381C293.875 77.8583 294.096 77.522 294.408 77.2867C294.72 77.0514 295.105 76.9316 295.496 76.9479C295.887 76.9642 296.26 77.1156 296.552 77.3762C296.843 77.6367 297.035 77.9902 297.094 78.3763L302.587 111.314L307.264 95.0282C307.362 94.6852 307.568 94.3829 307.851 94.1663C308.135 93.9497 308.481 93.8306 308.838 93.8266H308.872C309.225 93.8267 309.57 93.9383 309.856 94.1454C310.143 94.3526 310.356 94.6447 310.467 94.9802L313.449 103.935H317.537C317.827 103.054 318.356 102.27 319.065 101.67C319.774 101.07 320.635 100.677 321.553 100.534C322.472 100.392 323.412 100.506 324.27 100.863C325.128 101.22 325.87 101.806 326.415 102.558C326.96 103.31 327.286 104.197 327.358 105.122C327.429 106.047 327.243 106.973 326.821 107.8C326.398 108.626 325.755 109.319 324.962 109.804C324.169 110.288 323.258 110.545 322.328 110.545L322.319 110.533Z" fill="#EC5863"/>
</g>
<g filter="url(#filter1_d_6_373)">
<circle cx="279.415" cy="156" r="20.3936" fill="#587EEC"/>
</g>
<path d="M286.213 156L276.016 161.887L276.016 150.113L286.213 156Z" fill="white"/>
<defs>
<filter id="filter0_d_6_373" x="0.829773" y="0" width="557.17" height="320" filterUnits="userSpaceOnUse" color-interpolation-filters="sRGB">
<feFlood flood-opacity="0" result="BackgroundImageFix"/>
<feColorMatrix in="SourceAlpha" type="matrix" values="0 0 0 0 0 0 0 0 0 0 0 0 0 0 0 0 0 0 127 0" result="hardAlpha"/>
<feOffset dy="4"/>
<feGaussianBlur stdDeviation="9"/>
<feColorMatrix type="matrix" values="0 0 0 0 0.345098 0 0 0 0 0.494118 0 0 0 0 0.92549 0 0 0 0.18 0"/>
<feBlend mode="normal" in2="BackgroundImageFix" result="effect1_dropShadow_6_373"/>
<feBlend mode="normal" in="SourceGraphic" in2="effect1_dropShadow_6_373" result="shape"/>
</filter>
<filter id="filter1_d_6_373" x="257.021" y="135.606" width="44.7872" height="44.7872" filterUnits="userSpaceOnUse" color-interpolation-filters="sRGB">
<feFlood flood-opacity="0" result="BackgroundImageFix"/>
<feColorMatrix in="SourceAlpha" type="matrix" values="0 0 0 0 0 0 0 0 0 0 0 0 0 0 0 0 0 0 127 0" result="hardAlpha"/>
<feOffset dy="2"/>
<feGaussianBlur stdDeviation="1"/>
<feColorMatrix type="matrix" values="0 0 0 0 0 0 0 0 0 0 0 0 0 0 0 0 0 0 0.16 0"/>
<feBlend mode="normal" in2="BackgroundImageFix" result="effect1_dropShadow_6_373"/>
<feBlend mode="normal" in="SourceGraphic" in2="effect1_dropShadow_6_373" result="shape"/>
</filter>
<linearGradient id="paint0_linear_6_373" x1="220.348" y1="270.953" x2="220.348" y2="86.0969" gradientUnits="userSpaceOnUse">
<stop stop-color="#808080" stop-opacity="0.25"/>
<stop offset="0.54" stop-color="#808080" stop-opacity="0.12"/>
<stop offset="1" stop-color="#808080" stop-opacity="0.1"/>
</linearGradient>
<linearGradient id="paint1_linear_6_373" x1="67296.1" y1="139515" x2="67296.1" y2="44626.4" gradientUnits="userSpaceOnUse">
<stop stop-color="#808080" stop-opacity="0.25"/>
<stop offset="0.54" stop-color="#808080" stop-opacity="0.12"/>
<stop offset="1" stop-color="#808080" stop-opacity="0.1"/>
</linearGradient>
</defs>
</svg>
